<?xml version="1.0" standalone="no"?>
<!DOCTYPE svg PUBLIC "-//W3C//DTD SVG 20010904//EN"
 "http://www.w3.org/TR/2001/REC-SVG-20010904/DTD/svg10.dtd">
<svg version="1.0" xmlns="http://www.w3.org/2000/svg"
 width="1080.000000pt" height="1080.000000pt" viewBox="0 0 1080.000000 1080.000000"
 preserveAspectRatio="xMidYMid meet">
<metadata>
Created by potrace 1.11, written by Peter Selinger 2001-2013
</metadata>
<g transform="translate(0.000000,1080.000000) scale(0.100000,-0.100000)"
fill="#000000" stroke="none">
<path d="M6001 9834 c0 -11 3 -14 6 -6 3 7 2 16 -1 19 -3 4 -6 -2 -5 -13z"/>
<path d="M5964 9825 c-12 -8 -24 -11 -28 -8 -3 3 -6 1 -6 -5 0 -16 14 -22 30
-12 21 13 44 -8 29 -26 -9 -11 -8 -14 0 -14 7 0 9 -4 6 -10 -11 -17 -22 -11
-21 12 1 18 -5 23 -26 25 -16 1 -28 -2 -28 -6 0 -11 26 -32 32 -26 2 3 5 -1 5
-8 0 -8 -6 -14 -14 -14 -7 0 -11 3 -8 5 7 7 -26 42 -39 42 -6 0 -5 -4 3 -9 20
-13 6 -42 -16 -34 -17 6 -17 5 0 -14 18 -21 18 -21 -2 -28 -17 -5 -19 -10 -11
-26 9 -17 7 -19 -17 -19 -20 0 -24 -3 -14 -9 16 -10 6 -31 -15 -31 -8 0 -14
-7 -14 -15 0 -13 4 -14 20 -5 11 6 20 8 20 5 0 -8 -32 -41 -37 -37 -2 1 -9 2
-15 2 -10 0 -10 -2 0 -9 11 -6 10 -10 -4 -15 -10 -4 -21 -2 -24 5 -5 6 -9 3
-13 -10 -3 -12 -1 -19 4 -15 5 3 9 0 9 -5 0 -6 -5 -11 -11 -11 -6 0 -8 -7 -5
-16 5 -14 4 -15 -7 -5 -11 9 -17 8 -27 -4 -8 -9 -9 -15 -4 -14 19 3 34 -1 34
-12 0 -5 -4 -8 -9 -4 -5 3 -12 1 -16 -5 -4 -6 -10 -8 -15 -5 -5 3 -12 1 -15
-5 -4 -6 -3 -10 2 -9 26 5 34 -1 20 -16 -9 -8 -13 -24 -10 -36 5 -17 3 -20 -7
-14 -10 6 -12 3 -8 -13 4 -12 2 -20 -3 -16 -5 3 -9 0 -9 -5 0 -6 -5 -11 -11
-11 -5 0 -7 5 -3 12 4 7 3 8 -4 4 -18 -11 -14 -26 6 -26 11 -1 7 -6 -13 -17
-17 -9 -25 -18 -17 -21 6 -2 10 -8 7 -12 -3 -5 -13 -6 -23 -3 -15 6 -15 5 -4
-10 15 -17 9 -37 -11 -37 -7 0 -6 4 3 10 8 5 11 13 6 17 -5 4 -11 3 -13 -4 -2
-6 -13 -21 -24 -34 -26 -30 -24 -45 3 -19 12 11 24 17 27 14 3 -4 0 -9 -7 -11
-6 -3 -9 -10 -6 -15 4 -7 2 -8 -4 -4 -7 4 -12 2 -12 -5 0 -7 -8 -9 -21 -6 -17
5 -18 3 -7 -11 7 -9 9 -13 3 -10 -5 3 -16 0 -23 -8 -7 -8 -9 -14 -5 -15 4 0
-3 -5 -17 -11 -14 -6 -28 -10 -32 -10 -5 1 -8 -3 -8 -9 0 -6 7 -8 15 -5 8 3
23 9 33 12 14 5 15 4 2 -5 -8 -6 -15 -16 -15 -23 0 -7 -6 -14 -12 -14 -7 -1
-16 -3 -20 -4 -5 -1 -15 -2 -24 -1 -16 2 -35 -27 -24 -37 3 -3 5 0 5 6 0 6 8
9 18 6 15 -5 15 -4 2 6 -12 9 -12 11 -1 8 8 -2 15 -11 17 -20 1 -11 -3 -15
-12 -11 -8 3 -14 0 -14 -5 0 -6 -12 -9 -27 -6 -20 3 -24 2 -14 -5 12 -7 12
-13 3 -24 -7 -7 -8 -18 -4 -23 4 -4 0 -4 -8 2 -8 6 -21 9 -27 8 -7 -1 -17 -2
-23 -3 -5 0 -10 -6 -10 -12 0 -8 4 -9 13 0 13 10 27 6 27 -10 0 -6 -28 -17
-41 -15 -13 2 -40 -28 -35 -39 2 -6 -5 -11 -17 -11 -12 1 -26 -8 -31 -19 -6
-11 -17 -20 -23 -21 -29 -2 -33 -5 -33 -21 0 -9 -3 -13 -7 -10 -3 4 -12 -1
-20 -11 -8 -9 -12 -11 -8 -5 4 9 1 11 -11 6 -11 -4 -13 -8 -6 -11 18 -6 15
-22 -4 -22 -10 0 -14 -6 -10 -15 3 -8 2 -15 -2 -16 -4 0 -14 -2 -22 -4 -8 -2
-28 -6 -44 -9 -37 -7 -43 -13 -14 -14 13 -1 32 -3 43 -5 11 -3 26 0 33 6 8 7
12 5 12 -6 0 -9 -7 -14 -17 -12 -10 1 -24 -3 -32 -9 -11 -8 -13 -8 -7 2 4 7 1
12 -9 12 -10 0 -13 -5 -9 -12 5 -9 2 -9 -9 1 -12 9 -17 10 -17 2 0 -7 -5 -9
-10 -6 -6 3 -20 3 -31 0 -16 -5 -20 -13 -15 -33 3 -15 3 -21 0 -14 -8 18 -38
15 -57 -6 -15 -16 -13 -17 26 -17 23 1 48 5 56 9 10 6 12 5 7 -2 -9 -14 -5
-15 27 -3 14 6 29 6 38 0 11 -7 11 -9 -3 -10 -19 -2 -35 -5 -43 -9 -13 -7 -31
-5 -42 3 -8 6 -13 6 -13 0 0 -5 -7 -10 -15 -10 -8 0 -15 4 -15 9 0 5 -8 4 -18
-1 -10 -5 -26 -9 -36 -8 -11 1 -21 -5 -24 -13 -5 -13 -3 -13 12 -1 14 12 16
12 10 -3 -4 -9 -14 -16 -23 -15 -28 2 -41 -1 -41 -11 0 -5 7 -7 15 -4 9 4 15
0 15 -9 0 -8 -6 -15 -12 -14 -32 1 -48 -4 -48 -15 0 -6 3 -8 7 -5 3 4 12 2 19
-4 8 -7 14 -7 19 1 3 5 16 10 28 10 15 0 18 -3 10 -11 -6 -6 -17 -11 -24 -12
-8 -2 -20 -7 -28 -11 -10 -7 -12 -6 -6 4 6 10 4 12 -7 7 -9 -3 -19 -2 -24 2
-5 4 -19 -2 -32 -15 l-22 -21 21 1 c12 0 24 -4 26 -9 2 -6 -9 -10 -24 -9 -28
1 -66 -25 -84 -58 -7 -14 -6 -16 6 -12 8 4 15 1 15 -5 0 -6 -3 -10 -7 -10 -22
4 -43 -2 -39 -10 3 -5 -1 -11 -8 -14 -8 -3 -20 -16 -26 -28 -8 -15 -9 -19 -1
-15 6 4 11 2 11 -3 0 -6 -8 -11 -19 -11 -10 0 -21 -9 -24 -20 -3 -11 -1 -17 5
-14 16 10 60 12 50 2 -5 -5 -30 -10 -56 -11 -25 -1 -46 -6 -46 -10 0 -5 4 -6
9 -2 5 3 16 -1 24 -9 8 -8 18 -12 22 -8 5 4 5 2 1 -5 -4 -7 -13 -10 -21 -7
-14 6 -40 -30 -31 -44 3 -5 -12 -7 -32 -6 -35 3 -36 2 -14 -10 l23 -12 -25
-12 c-20 -9 -26 -9 -26 0 0 6 -3 8 -7 4 -5 -4 0 -14 10 -21 18 -13 17 -14 -2
-20 -12 -3 -21 -13 -21 -20 0 -8 -6 -12 -13 -9 -8 3 -14 -1 -15 -8 -2 -22 -7
-42 -15 -55 -9 -15 -5 -193 5 -193 4 0 8 -5 8 -11 0 -6 -7 -8 -16 -5 -13 5
-14 4 -6 -7 7 -8 8 -18 4 -22 -4 -5 -1 -5 6 -1 13 8 14 2 14 -72 0 -32 3 -42
13 -38 8 3 11 -2 8 -14 -3 -11 4 -32 16 -49 12 -16 21 -37 21 -46 0 -9 5 -13
10 -10 6 3 10 -1 10 -10 0 -17 13 -35 43 -63 83 -77 84 -78 65 -85 -7 -2 -5
-3 5 -1 10 1 25 -8 34 -22 12 -19 18 -22 29 -13 12 10 13 8 8 -7 -4 -10 -3
-16 1 -12 5 5 13 -2 19 -14 6 -12 18 -24 26 -26 13 -5 13 -3 1 11 -11 14 -11
18 3 23 9 4 20 4 23 0 4 -3 1 -6 -6 -6 -9 0 -9 -5 -1 -20 8 -14 8 -20 0 -20
-7 0 -4 -7 4 -16 9 -8 19 -13 23 -11 5 2 16 -5 27 -16 18 -19 17 -19 -25 -12
-24 4 -55 10 -69 12 -14 3 -31 6 -39 7 -7 1 -22 13 -33 27 -11 13 -17 18 -13
12 4 -8 0 -13 -9 -13 -9 0 -16 4 -16 8 0 4 -12 9 -27 10 -15 1 -29 5 -32 10
-6 7 -25 13 -51 16 -8 0 -19 7 -23 14 -5 8 -17 10 -29 6 -14 -4 -18 -2 -14 5
7 10 -7 15 -40 14 -7 0 -9 8 -6 20 3 13 1 18 -6 13 -6 -4 -21 4 -33 18 -12 13
-27 22 -34 20 -18 -7 -30 16 -14 27 10 6 11 9 2 10 -7 1 -17 2 -22 3 -5 0 -20
14 -33 31 -12 16 -31 38 -41 48 -10 10 -16 25 -13 33 3 8 1 14 -4 14 -5 0 -7
9 -5 20 2 11 -1 20 -6 20 -6 0 -9 6 -6 13 2 6 10 11 16 9 7 -1 10 2 6 8 -3 6
-10 8 -14 6 -7 -5 -10 19 -15 134 -1 27 4 52 13 63 9 11 10 17 3 17 -7 0 -12
7 -12 16 0 10 6 14 14 11 9 -4 16 3 20 16 10 38 7 45 -16 41 -13 -2 -17 -2
-10 2 6 3 10 9 7 14 -3 4 2 11 11 14 8 3 12 2 9 -4 -3 -6 -1 -10 4 -10 13 0
15 17 3 24 -5 3 -7 19 -4 36 3 19 0 30 -7 30 -7 0 -9 5 -5 12 4 7 3 8 -4 4
-15 -9 -37 5 -37 24 0 18 -46 30 -64 16 -11 -8 -13 -8 -7 2 6 10 1 11 -21 6
-15 -4 -36 -7 -45 -7 -9 1 -21 -4 -27 -11 -8 -10 -4 -12 18 -8 20 3 30 -1 34
-13 4 -9 3 -14 -2 -11 -12 8 -71 -5 -71 -15 0 -5 6 -6 13 -3 8 3 14 -2 14 -11
0 -9 -6 -14 -14 -11 -7 3 -13 2 -13 -3 0 -4 -9 -7 -20 -7 -10 1 -18 -2 -17 -6
1 -4 -8 -15 -21 -24 -13 -9 -21 -21 -19 -27 2 -7 -3 -17 -12 -24 -11 -8 -12
-12 -3 -13 6 0 12 -5 12 -11 0 -5 -4 -8 -9 -5 -5 3 -14 -8 -20 -26 -15 -42
-14 -48 7 -48 10 -1 6 -6 -13 -14 -20 -8 -25 -15 -17 -20 7 -4 10 -12 6 -17
-3 -5 -9 -7 -14 -4 -5 3 -11 1 -14 -4 -4 -5 -1 -13 5 -17 8 -5 9 -3 4 6 -5 9
-4 11 4 6 9 -6 9 -11 0 -22 -6 -8 -8 -14 -3 -15 5 0 0 -4 -11 -9 -19 -8 -19
-9 3 -9 12 -1 22 -6 22 -12 0 -6 -8 -9 -18 -7 -11 3 -19 0 -19 -7 0 -7 6 -11
14 -8 7 3 13 -2 13 -12 0 -10 -5 -13 -12 -9 -6 4 -8 3 -4 -4 3 -6 -2 -13 -11
-15 -15 -4 -14 -5 3 -6 13 -1 25 8 31 21 9 21 10 19 11 -12 0 -19 7 -39 16
-45 16 -12 8 -32 -11 -29 -25 3 -25 4 -14 18 15 18 -5 34 -22 17 -8 -8 -8 -11
2 -11 7 0 10 -4 7 -8 -12 -19 14 -35 56 -34 31 0 37 -2 23 -7 -11 -5 -28 -7
-37 -5 -10 1 -18 -3 -18 -9 0 -7 -4 -6 -10 3 -8 13 -10 12 -10 -3 0 -11 6 -17
17 -15 10 2 19 -5 21 -16 3 -13 0 -16 -10 -11 -7 3 -4 -1 6 -9 28 -23 37 -20
26 9 -6 16 -6 25 0 25 6 0 11 -4 11 -10 1 -5 2 -15 3 -21 0 -7 10 -16 21 -20
14 -6 9 -7 -17 -5 -38 3 -52 -9 -23 -20 8 -4 15 -14 15 -23 0 -14 2 -14 10 -1
5 8 10 11 10 6 0 -5 7 -3 15 4 12 10 15 10 15 -4 0 -9 -6 -16 -14 -16 -8 0
-18 -5 -22 -12 -4 -7 -3 -8 4 -4 7 4 12 2 12 -4 0 -7 7 -9 16 -6 8 3 12 2 9
-4 -4 -6 -3 -19 0 -31 5 -16 10 -18 21 -8 8 6 14 8 14 5 0 -4 9 -2 20 4 14 8
20 8 20 0 0 -6 4 -9 9 -5 5 3 12 2 15 -3 3 -5 -13 -7 -34 -6 -25 1 -41 -3 -44
-12 -3 -8 -1 -14 4 -14 5 0 16 -7 24 -15 14 -14 18 -14 40 0 18 12 26 13 32 4
4 -7 3 -9 -3 -6 -6 4 -19 0 -29 -8 -18 -14 -18 -15 3 -21 13 -3 20 -11 17 -18
-3 -6 3 0 14 13 16 20 22 22 40 12 30 -16 28 -25 -3 -17 -14 4 -25 2 -25 -4 0
-5 0 -12 0 -15 0 -3 3 -4 8 -2 4 1 6 6 4 12 -2 5 6 1 18 -10 20 -18 20 -20 3
-26 -17 -7 -17 -8 0 -8 11 -1 15 -6 11 -13 -5 -7 -3 -8 7 -2 8 5 17 9 22 10 4
1 10 3 15 4 17 6 48 -3 81 -24 20 -12 45 -21 56 -19 11 1 14 0 7 -3 -17 -8 14
-33 41 -34 9 0 17 -4 17 -8 0 -4 14 -9 32 -10 18 -2 35 -6 38 -11 3 -5 19 -11
35 -14 58 -11 65 -13 88 -33 18 -16 29 -19 47 -12 13 5 26 5 29 1 9 -13 78
-15 86 -4 9 15 38 14 33 -1 -2 -6 -14 -12 -26 -13 -24 -2 -42 -14 -24 -16 21
-2 27 -4 38 -11 8 -6 49 -4 49 2 0 7 63 6 75 -1 10 -5 4 -7 -17 -4 -23 2 -30
0 -27 -9 3 -7 21 -13 42 -13 59 0 92 -7 89 -18 -2 -5 -9 -10 -15 -10 -5 0 -13
-3 -17 -7 -8 -7 15 -5 30 3 6 3 20 4 32 4 16 -2 20 2 16 14 -4 11 -1 10 10 -4
8 -10 14 -24 13 -30 -2 -5 -1 -7 1 -2 3 4 9 7 14 7 6 0 7 -6 3 -12 -5 -10 -4
-10 7 0 11 10 16 8 26 -10 7 -13 12 -17 13 -9 0 11 3 11 15 1 8 -7 21 -10 30
-7 8 4 17 2 20 -2 3 -5 14 -7 26 -4 16 5 20 2 17 -13 -2 -15 4 -20 27 -22 16
-2 35 -12 43 -23 7 -10 21 -19 31 -19 10 0 26 -9 36 -20 10 -11 28 -20 40 -20
12 0 32 -9 45 -20 13 -11 32 -20 42 -20 11 0 17 -4 13 -9 -3 -5 -1 -12 4 -15
5 -4 13 -1 17 5 5 8 3 9 -7 4 -8 -5 -11 -4 -6 0 13 15 51 13 67 -3 13 -14 12
-15 -18 -9 -38 8 -42 -5 -7 -21 14 -6 25 -16 25 -22 0 -5 9 -10 19 -10 10 0
21 -7 25 -15 3 -8 17 -20 31 -25 14 -5 25 -14 25 -19 0 -5 8 -12 17 -15 14 -6
14 -3 -3 15 -19 22 -19 22 1 12 11 -6 30 -9 43 -8 13 1 26 -3 29 -8 3 -6 2 -7
-4 -4 -6 4 -18 0 -28 -7 -18 -13 -17 -15 8 -40 15 -15 32 -24 37 -21 6 4 7 -1
3 -11 -4 -11 -3 -15 5 -10 6 3 13 2 17 -3 3 -6 12 -8 20 -4 9 3 22 0 29 -6 10
-8 16 -9 19 -1 3 6 4 5 3 -2 -2 -9 -16 -12 -42 -10 -27 2 -35 -1 -25 -7 8 -5
22 -8 32 -6 10 2 21 -1 25 -7 4 -7 9 -6 14 2 5 8 9 5 12 -8 4 -15 1 -20 -11
-17 -10 2 -18 -3 -18 -11 0 -8 3 -12 5 -9 3 3 12 -1 20 -8 13 -9 14 -9 8 1 -4
6 -2 12 3 12 6 0 11 -5 11 -12 0 -9 3 -9 12 0 17 17 38 15 38 -3 0 -8 -7 -15
-15 -15 -8 0 -15 -8 -14 -17 0 -11 3 -13 6 -5 8 21 49 15 50 -8 2 -17 -3 -19
-29 -15 -27 5 -29 4 -15 -10 17 -16 37 -16 50 0 4 6 10 5 16 -4 5 -8 11 -9 15
-3 7 11 43 5 52 -9 3 -5 -7 -5 -21 1 -20 7 -27 6 -31 -4 -4 -10 -16 -12 -37
-9 -18 3 -29 2 -26 -1 4 -5 38 -13 62 -15 5 -1 5 -6 2 -11 -4 -6 -10 -8 -15
-5 -5 3 -11 1 -14 -4 -4 -5 5 -8 19 -6 29 3 44 -13 25 -25 -9 -6 -7 -10 9 -15
11 -3 21 -11 21 -16 0 -7 12 -8 31 -4 20 5 29 4 25 -3 -3 -5 -19 -9 -36 -8
-35 2 -38 -4 -11 -21 13 -8 18 -19 14 -33 -6 -22 15 -28 33 -10 8 8 15 6 23
-4 11 -13 10 -15 -6 -11 -11 2 -26 -1 -34 -6 -11 -7 -11 -9 4 -9 9 0 17 -7 17
-16 0 -8 -5 -12 -11 -9 -6 4 -5 -2 2 -13 7 -12 18 -18 24 -14 5 3 5 0 -1 -9
-9 -11 -9 -17 1 -26 7 -6 15 -11 17 -10 2 1 -1 -2 -7 -8 -14 -14 -11 -61 3
-58 7 2 12 -2 12 -7 0 -6 10 -10 23 -11 21 -1 19 -2 -22 -15 -11 -4 -11 -7 0
-21 10 -12 10 -15 1 -9 -7 4 -15 1 -18 -9 -9 -22 2 -30 20 -16 10 8 16 9 21 1
4 -6 1 -9 -7 -8 -7 2 -12 -2 -11 -9 2 -7 -3 -10 -11 -7 -8 3 -17 0 -22 -7 -4
-7 -3 -10 2 -6 5 3 18 -2 29 -10 20 -15 20 -15 -2 -8 -14 4 -23 2 -23 -5 0 -6
-4 -9 -9 -6 -4 3 -7 -5 -6 -18 2 -17 -3 -26 -16 -29 -13 -3 -17 -12 -14 -27 3
-17 1 -20 -13 -15 -13 5 -14 3 -5 -6 15 -15 33 -3 28 20 -2 14 2 17 20 16 13
-2 32 -8 42 -14 15 -8 12 -10 -14 -6 -28 3 -33 0 -33 -18 0 -16 3 -18 9 -8 7
11 9 11 14 0 4 -9 8 -11 14 -4 9 12 28 14 37 4 6 -5 -1 -7 -44 -11 -11 -1 -22
-9 -25 -16 -4 -11 0 -13 15 -9 14 3 20 1 17 -6 -2 -7 -21 -13 -43 -13 -38 -2
-38 -1 -16 13 30 21 28 30 -8 30 -21 0 -27 -4 -20 -11 14 -14 12 -26 -5 -26
-20 0 -19 -20 1 -34 14 -11 14 -13 -2 -27 -16 -12 -17 -12 -12 3 5 10 2 15 -8
14 -24 -4 -33 -20 -18 -34 11 -10 14 -10 14 0 0 9 3 9 10 -2 6 -9 5 -17 -3
-22 -6 -4 -8 -10 -4 -15 5 -4 11 -3 15 2 4 6 14 9 22 9 8 -1 23 -2 33 -3 10 0
15 -6 12 -11 -4 -6 -20 -9 -36 -6 -16 2 -29 1 -29 -3 0 -3 -17 -6 -37 -5 -48
3 -65 -6 -53 -26 8 -13 10 -12 10 3 0 19 8 21 30 7 14 -9 13 -11 -9 -14 -5 0
-13 -4 -17 -8 -4 -5 -16 -8 -27 -8 -11 0 -17 -3 -14 -7 4 -3 32 -5 62 -4 44 1
55 -2 55 -14 0 -13 -4 -14 -20 -5 -11 6 -20 7 -20 2 0 -5 -7 -9 -15 -9 -8 0
-15 4 -15 9 0 5 -10 3 -22 -3 -13 -7 -24 -12 -25 -11 -10 7 -43 0 -43 -9 0 -5
4 -8 8 -5 5 3 9 -1 9 -9 0 -8 -4 -12 -8 -9 -4 2 -14 -3 -22 -11 -11 -11 -17
-11 -19 -3 -3 7 -7 6 -11 -5 -3 -9 -3 -16 1 -16 19 3 33 -2 28 -10 -3 -4 -28
-7 -56 -6 -27 1 -50 -2 -50 -7 0 -5 -5 -6 -12 -2 -7 4 -8 3 -4 -4 5 -9 13 -9
26 -2 25 13 33 13 24 -2 -4 -7 -3 -8 4 -4 7 4 17 4 23 0 17 -10 -12 -24 -38
-17 -18 4 -23 1 -23 -13 0 -14 2 -16 9 -6 7 11 9 11 14 -1 4 -11 -4 -17 -29
-22 -27 -5 -33 -9 -25 -19 7 -8 5 -12 -7 -14 -48 -5 -57 -10 -60 -33 -5 -33
-20 -48 -32 -29 -6 10 -10 11 -10 3 0 -7 -7 -10 -17 -6 -10 3 -15 3 -11 -1 6
-7 28 -13 52 -15 17 -2 -5 -15 -24 -16 -11 0 -20 -4 -20 -10 0 -5 4 -10 9 -10
5 0 13 -3 17 -8 6 -5 -6 -10 -18 -6 -2 0 -16 -4 -31 -10 -18 -7 -26 -7 -22 -1
3 6 1 10 -4 10 -6 0 -11 -5 -11 -11 0 -6 -9 -9 -20 -6 -16 4 -18 2 -10 -13 7
-13 7 -21 0 -25 -5 -3 -10 0 -10 7 0 9 -3 9 -10 -2 -9 -13 -10 -13 -10 0 0 12
-2 12 -9 2 -7 -11 -9 -11 -14 2 -3 8 -2 17 4 20 5 2 4 3 -3 2 -7 -2 -12 -8
-11 -15 2 -6 -9 -9 -27 -7 -16 2 -29 1 -28 -3 3 -26 -5 -37 -26 -37 -14 0 -24
2 -24 5 1 18 -4 20 -16 9 -8 -7 -12 -16 -9 -20 2 -4 -2 -5 -10 -2 -7 2 -24 1
-38 -4 -34 -13 -51 -5 -39 18 7 13 7 21 0 25 -6 4 -8 16 -4 27 5 15 3 19 -7
13 -8 -5 -11 -5 -7 0 4 4 2 15 -5 24 -11 14 -10 14 6 2 20 -15 23 -2 5 18 -11
11 -10 13 4 8 12 -4 15 -2 11 8 -3 8 -10 12 -16 8 -6 -3 -7 -1 -3 6 4 6 2 20
-6 29 -11 15 -11 16 3 4 14 -10 18 -10 22 2 4 9 2 18 -4 22 -14 8 0 45 24 64
16 14 17 17 4 17 -9 0 -14 -4 -11 -9 3 -4 0 -8 -5 -8 -6 0 -10 11 -9 25 2 17
7 24 16 20 7 -2 10 0 7 5 -3 6 -12 10 -20 10 -19 0 -28 17 -14 26 7 4 9 3 6
-2 -3 -5 3 -10 14 -10 19 0 19 1 -1 16 -12 9 -21 23 -20 31 4 25 0 40 -8 35
-5 -3 -9 1 -9 9 0 8 5 12 10 8 5 -3 4 4 -2 15 -8 15 -8 22 2 25 7 3 5 6 -5 6
-10 1 -18 6 -18 12 0 5 6 7 13 3 6 -4 5 1 -4 12 -19 23 -23 64 -6 64 7 0 6 4
-3 9 -8 6 -18 7 -24 4 -5 -3 -6 -1 -2 5 4 7 15 12 24 12 14 0 15 2 2 9 -8 6
-19 7 -25 3 -5 -3 -4 2 4 12 11 13 16 14 24 4 6 -9 6 -6 1 7 -4 11 -7 30 -7
43 1 12 -3 22 -9 22 -5 0 -6 5 -3 10 3 6 1 10 -6 10 -9 0 -10 3 -2 11 13 13 4
61 -10 52 -6 -4 -8 0 -4 11 4 11 1 19 -11 23 -24 9 -41 34 -35 53 4 13 4 13
-6 0 -7 -9 -14 -11 -18 -5 -11 14 -77 50 -69 37 3 -6 1 -14 -5 -18 -8 -4 -9
-3 -5 4 4 7 2 12 -4 12 -6 0 -8 5 -5 10 3 6 -1 10 -9 10 -9 0 -16 5 -16 10 0
6 -6 10 -13 10 -7 0 -18 9 -24 19 -7 11 -20 18 -30 17 -10 -2 -26 8 -37 23
-10 14 -16 18 -12 9 3 -12 0 -18 -10 -18 -8 0 -13 4 -9 9 3 5 0 13 -6 17 -7 4
-9 3 -6 -3 10 -15 -10 -21 -70 -19 -28 0 -49 -2 -47 -6 3 -4 -2 -5 -11 -2 -13
5 -13 9 -3 23 9 11 7 11 -9 -2 -22 -19 -43 -16 -43 6 0 7 4 6 10 -3 6 -9 10
-10 10 -3 0 20 -20 26 -26 8 -6 -13 -8 -14 -15 -3 -7 10 -9 10 -9 -2 0 -11 -2
-12 -8 -2 -11 17 -50 24 -58 10 -4 -6 -3 -8 3 -5 6 4 17 -1 24 -11 13 -15 12
-16 -3 -3 -10 7 -18 10 -18 6 0 -4 -7 -2 -16 6 -13 10 -17 10 -25 -2 -5 -8 -9
-9 -9 -4 0 6 5 16 12 23 9 9 9 12 -1 12 -7 0 -9 5 -5 11 4 8 0 8 -15 0 -11 -7
-21 -8 -21 -4 0 4 -4 2 -9 -6 -8 -12 -12 -12 -24 -2 -12 9 -17 9 -23 0 -4 -7
-3 -9 2 -6 5 3 21 -4 34 -14 18 -15 19 -18 5 -11 -26 13 -115 21 -115 11 0 -4
-9 -6 -20 -4 -11 2 -18 0 -15 -4 7 -13 -27 -23 -37 -13 -10 10 -63 -11 -73
-29 -4 -5 -10 -7 -14 -4 -5 2 -20 -6 -35 -20 -14 -13 -26 -21 -26 -18 0 6
-130 -127 -162 -166 -10 -12 -18 -25 -18 -31 0 -5 -11 -21 -25 -35 -14 -14
-23 -25 -19 -25 3 0 1 -6 -5 -14 -9 -11 -9 -15 1 -19 10 -4 9 -9 -4 -20 -10
-8 -15 -17 -11 -20 3 -4 2 -7 -4 -7 -5 0 -10 -7 -11 -15 -1 -8 -3 -22 -4 -30
-1 -8 -6 -15 -12 -15 -6 0 -4 -5 4 -10 10 -6 11 -10 3 -10 -7 0 -13 -7 -13
-16 0 -9 -5 -12 -12 -8 -10 6 -10 4 0 -7 16 -17 16 -53 0 -43 -6 4 -4 -3 5
-16 12 -18 14 -27 5 -37 -9 -11 -7 -12 8 -6 17 6 18 5 4 -12 -11 -13 -11 -16
-2 -11 10 6 13 2 11 -15 -2 -13 1 -30 6 -38 5 -10 4 -16 -4 -19 -9 -3 -8 -9 5
-23 9 -10 13 -19 8 -19 -5 0 2 -10 16 -21 16 -14 19 -19 8 -15 -10 3 -18 1
-18 -4 0 -6 5 -10 11 -10 5 0 7 -5 3 -12 -5 -8 0 -9 15 -5 13 3 21 3 18 0 -3
-3 -2 -16 3 -29 6 -15 5 -26 -2 -30 -7 -5 -4 -10 10 -15 12 -5 22 -15 22 -24
0 -8 5 -15 10 -15 6 0 10 -4 10 -10 0 -9 19 -35 47 -65 7 -7 10 -15 8 -17 -3
-3 2 -5 10 -5 8 0 15 5 15 11 0 6 8 -1 17 -14 10 -14 18 -29 18 -34 0 -5 6
-11 14 -14 9 -3 11 0 6 8 -5 9 -4 11 4 6 9 -6 9 -11 -1 -24 -11 -13 -10 -14 9
-4 19 10 20 9 15 -10 -3 -13 -1 -19 6 -15 11 7 72 -23 72 -35 0 -5 7 -8 16 -8
8 0 12 -5 8 -11 -4 -7 1 -7 16 1 19 10 21 10 11 -8 -7 -14 -7 -19 4 -19 8 0
12 4 9 8 -2 4 0 11 6 14 6 4 10 3 9 -2 -3 -20 2 -34 11 -28 6 3 10 1 10 -5 0
-7 7 -7 23 1 19 11 20 10 10 -2 -10 -12 -8 -17 8 -27 11 -7 24 -10 29 -7 4 3
11 -1 13 -7 4 -9 6 -9 6 -1 1 8 10 9 30 3 18 -5 32 -4 35 1 2 5 3 4 2 -3 -2
-7 -15 -13 -29 -12 -33 1 -34 -4 -4 -15 14 -6 27 -5 36 3 11 8 13 8 8 -1 -8
-13 30 -12 51 1 7 4 15 1 18 -8 3 -9 10 -16 16 -16 5 0 7 4 4 8 -3 5 1 9 9 9
8 0 12 -3 10 -6 -2 -4 4 -15 12 -26 15 -19 15 -19 9 10 -5 24 -4 26 4 13 6
-10 20 -18 31 -18 11 0 17 -4 14 -10 -9 -15 2 -12 19 6 9 9 16 11 16 4 0 -6 5
-8 10 -5 6 3 10 2 10 -2 0 -5 12 -8 28 -8 37 2 62 -12 56 -30 -4 -9 0 -15 7
-15 10 -1 8 -5 -4 -14 -18 -14 -18 -15 0 -25 17 -10 17 -10 -1 -11 -20 0 -20
0 0 -16 10 -8 13 -12 5 -8 -11 5 -13 3 -8 -9 3 -10 3 -17 -1 -17 -4 0 -7 -33
-7 -74 0 -41 3 -72 7 -70 4 3 5 -2 2 -10 -3 -9 -10 -13 -15 -10 -5 3 -6 -2 -3
-10 3 -9 10 -14 14 -11 5 3 12 0 16 -6 4 -7 3 -9 -4 -5 -10 6 -12 1 -13 -51 0
-13 -10 -30 -22 -38 -21 -14 -21 -15 -2 -16 11 -1 24 -1 28 0 5 1 6 -3 2 -8
-3 -6 -13 -7 -23 -4 -14 5 -14 3 3 -17 11 -13 15 -20 8 -17 -6 4 -13 4 -16 0
-2 -5 -2 -2 -1 5 2 6 -1 12 -6 12 -19 0 -10 -39 11 -45 l20 -7 -20 -18 c-21
-17 -29 -36 -12 -25 5 3 12 1 16 -5 3 -5 -3 -10 -14 -10 -12 0 -21 -5 -21 -11
0 -5 5 -7 10 -4 6 3 10 2 10 -4 0 -6 6 -9 13 -7 6 1 9 1 4 -1 -4 -3 -5 -9 -1
-14 7 -13 -19 -7 -28 6 -4 5 -6 -4 -4 -20 2 -17 -2 -34 -8 -38 -7 -6 -4 -7 6
-3 10 3 20 1 23 -5 4 -5 1 -8 -7 -7 -8 2 -12 -4 -10 -16 2 -12 -1 -16 -9 -10
-8 4 -10 3 -5 -4 4 -7 1 -12 -6 -12 -11 0 -11 -2 0 -9 9 -5 11 -17 6 -35 -5
-20 -2 -31 12 -41 18 -13 17 -14 -5 -8 -17 4 -22 3 -17 -6 4 -6 2 -19 -5 -27
-10 -13 -10 -17 0 -24 10 -6 10 -13 -4 -34 -10 -14 -14 -26 -10 -26 4 0 -3 -9
-16 -21 -13 -11 -18 -17 -10 -13 11 5 13 3 8 -10 -4 -10 -7 -20 -7 -22 0 -3
-4 -2 -10 1 -5 3 -10 0 -10 -7 0 -9 -3 -9 -10 2 -5 8 -10 10 -10 5 0 -6 5 -16
11 -22 8 -8 7 -13 -2 -18 -8 -6 -10 -4 -4 4 5 10 2 9 -13 0 -23 -14 -20 -31 3
-22 8 3 15 0 15 -7 0 -6 -4 -8 -10 -5 -5 3 -10 2 -10 -3 0 -6 -8 -9 -17 -8
-10 0 -18 -4 -18 -11 0 -7 -6 -18 -12 -24 -7 -7 -13 -19 -13 -25 0 -7 -9 -16
-20 -19 -21 -7 -28 -25 -9 -25 5 0 8 -4 4 -9 -3 -6 -14 -8 -26 -6 -11 2 -19
-1 -18 -8 3 -26 -2 -37 -16 -37 -8 0 -15 5 -15 11 0 5 4 8 9 4 5 -3 12 -1 15
4 3 5 -5 11 -19 13 -17 4 -25 1 -25 -8 0 -8 -8 -14 -18 -14 -10 0 -23 -5 -30
-12 -7 -7 -12 -8 -12 -2 0 6 11 17 25 24 23 12 24 15 9 23 -13 7 -21 5 -30 -9
-7 -10 -19 -26 -26 -34 -7 -8 -14 -18 -14 -22 -1 -5 -3 -11 -4 -15 -2 -5 -4
-12 -5 -18 -13 -57 -19 -76 -26 -81 -16 -9 0 -22 21 -17 11 3 18 8 16 12 -3 4
0 13 6 21 8 12 9 12 4 -3 -7 -21 34 -42 47 -23 5 6 6 1 2 -11 -4 -15 -2 -23 5
-23 8 0 10 -10 8 -25 -5 -25 6 -35 15 -15 3 6 4 5 3 -2 -1 -7 -13 -18 -25 -24
-16 -8 -18 -13 -9 -17 16 -6 48 15 48 32 0 7 4 9 10 6 5 -3 18 -2 27 3 19 10
43 6 43 -8 0 -4 -8 -7 -17 -7 -47 0 -58 -3 -44 -12 22 -14 111 10 111 30 0 4
10 6 21 4 12 -3 19 -2 15 2 -3 3 3 13 14 20 18 12 24 13 38 1 15 -12 16 -11 3
5 -12 16 -12 20 1 33 13 13 15 13 15 0 0 -8 -5 -12 -10 -9 -6 4 -7 1 -2 -6 10
-17 26 -1 28 28 1 11 5 21 10 21 4 0 5 5 1 12 -4 7 -3 8 4 4 8 -4 8 -15 2 -31
-8 -20 -7 -23 8 -18 9 3 14 3 10 -2 -4 -4 -2 -15 5 -24 10 -14 10 -14 -5 -3
-11 9 -18 10 -23 2 -3 -5 -3 -10 2 -10 4 0 8 -15 8 -34 1 -26 -3 -32 -15 -28
-13 5 -13 3 -2 -10 10 -13 10 -18 1 -24 -8 -5 -9 -3 -4 6 5 8 4 11 -3 7 -12
-8 -10 -32 3 -44 4 -4 5 -2 0 6 -6 10 -4 12 4 7 9 -6 9 -11 0 -22 -14 -17 -23
-18 -13 -1 4 6 -2 4 -14 -7 -12 -10 -24 -27 -27 -37 -4 -12 -11 -16 -18 -12
-7 4 -6 -1 2 -10 12 -15 12 -17 -3 -11 -9 3 -17 1 -17 -5 -3 -26 -4 -30 -11
-37 -5 -4 -8 -15 -8 -25 0 -10 -8 -23 -17 -28 -14 -8 -15 -11 -3 -11 12 -1 12
-3 -2 -14 -10 -7 -15 -16 -11 -19 3 -4 1 -7 -5 -7 -6 0 -9 -9 -7 -21 4 -17 2
-19 -11 -8 -12 10 -13 9 -8 -6 5 -13 4 -16 -4 -11 -7 4 -12 3 -12 -3 0 -5 -9
-13 -20 -16 -11 -4 -18 -10 -15 -15 3 -5 -4 -14 -16 -20 -17 -10 -20 -9 -13 2
4 7 -10 -2 -33 -19 -22 -18 -45 -33 -51 -33 -5 0 -13 -7 -16 -16 -3 -9 -13
-14 -21 -10 -8 3 -17 0 -21 -6 -5 -7 -2 -8 7 -3 12 8 12 6 0 -8 -7 -9 -17 -14
-22 -11 -5 3 -9 0 -9 -5 0 -6 -6 -11 -13 -11 -7 0 -19 -9 -27 -20 -15 -21 -36
-28 -24 -8 5 7 3 8 -5 4 -7 -5 -10 -14 -7 -22 3 -8 1 -14 -3 -14 -5 0 -11 5
-13 11 -2 7 -10 4 -18 -7 -12 -14 -12 -16 -1 -9 10 5 12 4 7 -3 -5 -9 -13 -9
-26 -2 -24 13 -30 13 -30 -1 0 -5 6 -7 13 -3 6 4 8 3 4 -1 -13 -15 -36 -14
-30 1 6 17 -18 19 -35 2 -8 -8 -15 -8 -29 3 -14 11 -14 9 2 -10 11 -14 14 -21
8 -17 -7 4 -13 2 -13 -4 0 -6 -4 -8 -10 -5 -5 3 -10 -2 -11 -12 0 -14 -2 -15
-6 -3 -3 8 -11 19 -17 23 -7 6 -4 7 6 3 10 -3 20 -1 23 4 10 16 -11 19 -39 5
-25 -13 -27 -13 -22 1 3 8 2 12 -4 9 -6 -3 -10 -2 -10 2 0 5 -9 9 -20 10 -11
1 -20 -3 -20 -8 0 -6 5 -7 12 -3 7 4 8 3 4 -4 -5 -8 -2 -10 8 -6 9 3 16 2 16
-3 0 -16 -38 -12 -45 5 -6 15 -8 14 -16 -5 -4 -13 -15 -23 -24 -23 -8 0 -15
-5 -15 -11 0 -6 10 -8 23 -5 12 3 16 3 9 0 -6 -3 -10 -10 -7 -15 4 -5 0 -6 -8
-3 -8 3 -18 1 -22 -5 -4 -7 5 -11 24 -11 16 0 33 -5 37 -12 4 -6 3 -8 -4 -4
-5 3 -13 0 -15 -6 -4 -10 -6 -10 -6 0 -1 15 -21 6 -21 -10 0 -6 9 -8 21 -5 26
7 72 -9 64 -22 -3 -5 -1 -12 5 -16 5 -3 10 -1 10 6 0 7 3 9 6 6 4 -4 1 -13 -5
-21 -10 -12 -9 -15 8 -13 11 0 18 4 15 8 -2 4 1 11 7 15 8 4 9 3 5 -4 -7 -11
7 -17 29 -12 5 1 6 -2 2 -7 -9 -9 -14 -10 -49 -12 -28 -1 -12 -16 27 -25 19
-4 25 -3 17 2 -11 8 -11 10 2 15 9 4 15 3 15 -1 -5 -28 30 -48 74 -43 11 2 17
-5 17 -18 0 -12 5 -21 11 -21 6 0 9 7 5 15 -3 8 -2 15 2 16 4 0 14 2 22 3 8 2
24 0 35 -5 17 -6 17 -8 3 -8 -10 -1 -18 -6 -18 -12 0 -5 5 -7 10 -4 6 3 10 2
10 -3 0 -5 13 -7 29 -4 16 2 31 -1 35 -6 7 -12 66 7 66 21 0 4 -6 5 -12 1 -9
-5 -9 -2 1 9 21 26 50 22 44 -5 l-5 -23 17 23 c13 18 14 26 5 37 -7 8 -11 15
-9 16 52 10 54 10 35 -4 -12 -9 -15 -16 -8 -21 6 -3 13 -2 17 3 3 6 12 8 20 4
8 -3 15 0 15 7 0 6 -5 8 -12 4 -7 -4 -8 -3 -4 4 4 7 14 12 23 12 9 0 13 6 9
15 -4 10 6 20 30 30 19 8 38 14 42 14 24 -4 35 2 25 12 -8 8 -17 8 -34 -1
l-24 -11 23 20 c17 14 29 18 40 12 10 -5 26 -5 37 0 18 7 17 8 -7 8 -15 1 -30
6 -34 13 -4 7 -3 8 4 4 7 -4 12 -1 12 8 0 10 6 13 15 10 8 -4 15 -2 15 4 0 6
-6 13 -12 15 -10 4 -10 6 0 6 7 1 17 -9 22 -21 5 -13 9 -17 9 -10 1 7 -3 21
-9 31 -8 16 -5 18 28 17 29 -1 37 3 36 16 -1 10 2 18 8 18 5 0 6 4 3 10 -3 6
0 10 7 10 9 0 9 3 -2 10 -11 7 -11 10 -2 10 7 0 12 8 11 18 -1 9 3 28 8 42 6
14 9 28 6 33 -2 4 1 7 7 7 7 0 10 7 7 15 -4 8 -2 17 4 20 5 4 6 11 3 17 -4 6
-3 8 2 5 18 -10 33 27 19 46 -6 9 -16 13 -21 9 -4 -4 -2 1 5 11 7 9 10 17 6
17 -4 0 -2 6 4 13 6 8 7 18 3 23 -4 4 2 2 12 -6 18 -14 19 -14 8 7 -9 16 -9
22 0 25 6 2 12 12 14 21 1 9 -2 15 -7 11 -5 -3 -7 -9 -5 -13 3 -4 -1 -8 -9 -8
-11 0 -12 4 -4 14 9 9 8 17 0 27 -8 10 -9 16 -1 21 6 4 9 3 8 -2 -2 -4 2 -9 7
-10 6 -1 9 5 9 13 -1 8 2 14 6 14 8 0 5 44 -5 60 -3 6 -1 9 6 8 7 -2 13 12 15
37 3 28 1 36 -6 25 -5 -8 -10 -10 -10 -4 0 5 4 14 10 20 5 5 11 37 12 72 1 34
6 62 11 62 4 0 5 6 0 13 -11 18 -10 97 2 97 7 0 7 3 0 8 -13 9 -20 46 -7 38 5
-3 9 1 9 9 0 8 -3 15 -7 15 -4 0 -6 10 -4 23 1 12 3 22 4 22 4 0 9 83 10 163
0 57 4 82 13 82 8 0 6 4 -3 10 -13 9 -13 11 0 20 13 8 12 10 -4 10 -19 0 -19
0 0 22 10 12 14 18 7 15 -8 -5 -11 2 -11 23 1 16 6 30 12 30 6 0 4 5 -4 10
-12 8 -12 10 -1 10 11 0 11 3 1 15 -10 11 -10 19 -2 27 6 6 8 17 5 26 -4 8 -2
13 3 10 5 -4 10 41 11 105 4 256 12 478 18 487 3 6 1 10 -6 10 -9 0 -9 3 1 14
10 13 7 14 -17 10 -27 -5 -27 -5 -8 11 20 16 20 16 -4 11 -18 -4 -21 -2 -12 7
9 9 16 8 32 -1 12 -8 24 -11 27 -8 3 3 0 6 -6 6 -27 0 -9 15 19 16 19 1 26 -2
18 -7 -11 -6 -11 -9 1 -14 12 -4 15 -24 14 -93 -1 -48 3 -95 8 -106 6 -10 6
-16 1 -13 -12 8 -11 -107 1 -115 8 -5 8 -8 1 -8 -7 0 -11 -70 -12 -205 -1
-133 3 -205 9 -205 6 0 5 -6 -2 -15 -10 -12 -10 -15 1 -15 11 0 11 -2 0 -9
-13 -8 -13 -12 0 -27 9 -11 9 -15 2 -10 -9 5 -13 -1 -12 -21 0 -25 1 -26 9 -8
7 16 9 17 9 3 1 -9 -4 -20 -10 -23 -13 -9 -9 -185 5 -204 8 -11 8 -13 -1 -7
-10 5 -13 -3 -13 -29 0 -23 4 -34 11 -30 6 4 5 -2 -2 -13 -11 -17 -10 -24 2
-38 12 -15 12 -18 0 -22 -10 -3 -7 -9 10 -19 l24 -14 -23 5 c-17 3 -21 1 -14
-7 6 -7 10 -29 10 -49 0 -20 3 -41 6 -47 4 -5 1 -13 -5 -17 -8 -5 -9 -3 -4 6
5 9 4 11 -4 6 -6 -4 -8 -13 -4 -19 4 -7 8 -25 9 -41 1 -15 7 -32 13 -36 9 -5
8 -9 -5 -14 -13 -5 -15 -9 -6 -18 15 -15 16 -32 2 -23 -15 9 -12 -1 5 -18 13
-13 13 -16 -1 -21 -10 -4 -13 -2 -8 7 4 6 3 8 -1 4 -11 -9 -16 -39 -6 -33 4 3
7 -4 7 -14 0 -12 -4 -16 -11 -10 -6 5 -10 -5 -10 -30 -1 -21 3 -36 7 -34 4 3
8 1 8 -5 0 -5 -5 -11 -12 -13 -6 -2 -12 -12 -14 -22 -2 -17 -1 -17 19 1 l21
18 -21 -30 c-11 -16 -21 -37 -21 -45 -1 -8 -4 -28 -7 -45 -12 -64 -16 -137 -7
-132 5 4 9 0 9 -8 0 -8 -5 -13 -11 -12 -6 1 -11 -12 -11 -30 0 -17 -3 -29 -7
-27 -5 3 -8 -2 -8 -10 0 -9 6 -16 13 -16 8 0 7 -4 -3 -10 -8 -5 -12 -10 -8
-10 4 0 3 -14 -2 -30 -5 -19 -5 -28 1 -25 5 4 9 1 9 -4 0 -6 -5 -11 -12 -11
-6 0 -3 -9 7 -20 15 -16 15 -20 3 -15 -12 5 -14 1 -11 -18 3 -14 0 -28 -6 -31
-6 -4 -11 -15 -10 -24 0 -14 2 -13 9 3 8 18 9 18 9 2 1 -10 -5 -20 -13 -23 -8
-3 -12 -12 -9 -20 3 -8 1 -14 -4 -14 -10 0 -10 -46 0 -56 3 -3 -1 -17 -10 -30
-14 -22 -14 -24 1 -30 15 -6 15 -8 -1 -20 -15 -11 -15 -13 -3 -14 12 0 12 -2
2 -9 -7 -4 -12 -12 -11 -17 1 -5 0 -11 -1 -14 -2 -7 -9 -49 -13 -90 -3 -19 -8
-43 -12 -52 -4 -9 -4 -22 0 -28 3 -5 3 -10 -2 -10 -4 0 -9 -16 -11 -36 -1 -19
-7 -45 -13 -56 -8 -15 -8 -19 0 -14 6 4 11 2 11 -3 0 -6 -5 -11 -11 -11 -5 0
-8 -4 -4 -10 10 -15 -6 -61 -19 -53 -8 5 -8 3 -1 -8 13 -17 12 -35 -3 -72 -14
-33 -15 -44 -4 -50 4 -2 2 -3 -4 -1 -10 2 -54 -84 -54 -106 0 -6 -3 -10 -7
-10 -5 0 -17 -13 -27 -29 -11 -15 -34 -34 -53 -40 -18 -7 -31 -17 -28 -22 4
-5 0 -9 -7 -10 -24 -1 -62 -11 -91 -24 -19 -8 -77 12 -77 26 0 5 -3 8 -7 8
-25 -4 -43 2 -37 13 5 7 2 9 -8 6 -16 -6 -57 57 -45 69 4 3 0 11 -8 17 -23 17
-25 103 -2 90 9 -6 9 -4 1 7 -6 8 -14 21 -18 29 -3 8 -4 5 -2 -7 2 -13 -1 -23
-6 -23 -6 0 -8 12 -4 31 3 17 6 35 6 40 0 5 8 6 18 2 11 -3 9 0 -6 11 -12 10
-20 22 -16 27 3 6 12 3 21 -8 13 -15 12 -13 0 8 -16 26 -15 27 6 23 l22 -5
-21 10 c-12 5 -25 14 -29 20 -3 6 -10 9 -14 7 -4 -3 -8 4 -8 15 -1 10 3 19 8
19 6 0 8 -4 5 -9 -3 -5 1 -14 10 -21 12 -11 17 -11 27 0 9 10 9 11 0 6 -7 -4
-13 -2 -13 3 0 6 6 11 13 11 6 1 -1 7 -18 14 -16 7 -33 11 -37 9 -8 -4 -12 12
-8 36 1 13 -1 13 -14 2 -14 -11 -16 -11 -16 3 0 16 -1 16 -16 2 -17 -17 -28
-21 -20 -7 8 12 -20 34 -33 27 -5 -3 -11 0 -14 6 -3 10 -7 10 -20 -1 -10 -7
-17 -10 -17 -7 0 4 -9 -2 -21 -13 -13 -11 -18 -24 -14 -32 5 -8 4 -10 -3 -5
-7 4 -12 3 -12 -3 0 -6 -13 -9 -30 -7 -16 2 -27 -1 -24 -6 3 -5 13 -7 22 -3 8
3 3 -6 -11 -21 -27 -27 -50 -27 -28 0 9 11 9 16 0 22 -7 4 -9 3 -6 -3 8 -13
-27 -46 -38 -36 -4 5 -5 3 -1 -4 4 -7 13 -10 20 -7 22 9 28 -14 7 -25 -14 -8
-21 -8 -24 2 -4 9 -6 9 -6 -1 -1 -8 -6 -10 -13 -6 -7 4 -10 4 -6 -1 4 -4 1
-17 -7 -28 -11 -16 -12 -24 -2 -36 10 -12 9 -13 -1 -7 -14 9 -45 -12 -37 -24
3 -5 1 -11 -5 -15 -17 -11 0 -26 22 -19 18 5 19 4 7 -9 -9 -10 -18 -12 -26 -5
-15 12 -30 -17 -27 -52 1 -14 -3 -28 -9 -32 -15 -9 10 -38 33 -38 10 0 20 -9
23 -20 3 -11 1 -17 -4 -14 -6 3 -16 1 -23 -5 -11 -9 -11 -17 -2 -36 6 -14 14
-25 19 -25 4 0 7 -4 7 -10 0 -18 40 -50 63 -50 27 0 38 -8 55 -38 12 -22 12
-23 -8 -12 -11 6 -18 15 -15 19 5 10 -25 24 -33 16 -3 -3 0 -5 6 -5 7 0 12 -5
12 -11 0 -5 -6 -7 -12 -3 -7 3 6 -13 30 -36 56 -56 105 -82 140 -74 18 4 23 2
14 -4 -16 -11 130 -56 159 -49 13 3 22 0 26 -10 4 -9 8 -11 12 -4 9 14 91 23
91 10 0 -5 -5 -9 -12 -9 -6 0 -8 -3 -5 -7 4 -3 18 4 32 17 20 19 25 20 25 8 0
-9 -6 -19 -12 -21 -22 -9 30 -11 155 -5 43 2 46 4 30 15 -11 9 -19 10 -21 3
-2 -5 -10 -10 -17 -10 -16 0 -14 26 5 43 10 9 11 9 6 0 -7 -12 7 -18 29 -13 6
2 18 2 27 2 9 0 20 9 24 20 5 16 8 18 15 7 6 -11 9 -10 15 4 3 9 10 14 15 11
5 -3 7 -10 4 -15 -3 -5 1 -6 9 -3 9 3 16 9 16 13 0 4 12 8 28 9 15 1 35 12 45
26 12 16 24 23 40 20 15 -3 17 -2 7 3 -20 11 -24 34 -5 27 14 -6 20 6 16 29
-1 5 3 6 9 2 6 -3 8 -11 5 -16 -4 -5 -4 -9 0 -9 3 0 10 12 15 26 6 14 14 23
19 19 5 -3 13 0 17 6 5 8 3 9 -6 4 -8 -5 -11 -3 -8 6 3 8 11 14 18 14 7 0 14
9 16 19 1 11 10 23 18 28 9 5 16 16 16 23 0 8 4 15 9 15 11 0 33 59 26 70 -7
11 20 31 31 23 5 -4 4 -1 -3 6 -8 10 -9 20 -2 33 7 14 6 18 -5 18 -8 0 -17 4
-20 9 -3 5 2 8 11 7 10 0 19 7 21 18 2 11 0 16 -7 12 -7 -4 -9 -1 -5 8 3 8 12
12 20 9 8 -3 14 0 14 6 0 6 -19 11 -45 11 -25 0 -45 4 -45 9 0 4 16 7 35 4 21
-2 35 1 35 7 0 6 5 8 10 5 14 -9 12 19 -2 34 -7 7 -8 12 -3 11 22 -5 27 1 14
17 -10 11 -10 14 -1 9 8 -4 12 -1 12 10 0 11 -6 15 -20 11 -11 -3 -23 0 -27 5
-3 7 -1 8 5 4 7 -4 12 -2 12 4 0 7 7 10 15 7 8 -4 17 -2 20 3 4 6 -1 10 -10
10 -9 0 -13 5 -10 10 3 6 1 10 -5 10 -6 0 -8 5 -5 10 4 6 11 8 16 5 5 -4 9 -2
9 4 0 5 -10 11 -22 13 -21 3 -21 4 -3 18 11 9 16 10 11 3 -4 -8 -2 -13 8 -13
9 0 13 8 11 25 -1 14 2 28 7 31 4 3 -2 14 -14 25 -15 12 -17 17 -7 13 10 -3
20 -1 24 5 3 6 -1 11 -10 11 -15 0 -15 1 -1 16 15 15 13 39 -2 30 -4 -2 -13 2
-20 10 -11 12 -9 14 12 14 18 0 24 4 20 15 -4 8 -14 15 -23 16 -12 0 -10 3 7
11 12 6 22 15 22 20 0 7 -23 12 -43 9 -5 -1 -6 3 -3 8 3 5 15 7 26 4 23 -6 28
15 5 23 -8 4 -12 10 -9 15 3 5 10 7 15 3 5 -3 9 -2 8 3 -1 4 0 10 1 13 7 15 6
87 -2 97 -5 7 -5 14 2 18 17 10 11 28 -7 21 -17 -6 -17 -5 -1 7 9 7 17 24 18
37 3 38 1 46 -10 30 -7 -11 -10 -11 -10 -2 0 7 -4 10 -10 7 -5 -3 -7 0 -4 8 3
9 13 13 25 10 27 -7 24 13 -3 22 l-23 8 23 4 c16 3 22 9 18 20 -3 8 -6 20 -6
26 0 7 -4 6 -10 -3 -6 -10 -10 -11 -10 -2 0 6 9 21 20 32 19 19 19 19 -8 41
l-27 21 28 -16 c27 -16 27 -16 27 9 0 15 -4 24 -8 21 -5 -3 -9 1 -9 9 0 8 4
12 8 10 11 -7 16 16 16 73 0 29 3 56 7 59 11 11 6 24 -8 21 -8 -2 -15 2 -14 7
0 6 4 9 9 7 5 -1 9 4 10 10 0 7 2 23 3 36 2 15 -2 21 -10 18 -7 -3 -16 -1 -19
5 -4 5 -3 9 2 8 22 -4 28 4 29 36 1 32 -6 40 -29 36 -5 -1 -6 3 -2 9 3 5 12
10 18 10 7 0 13 15 13 35 1 19 -3 35 -7 35 -5 0 -9 -5 -9 -12 0 -9 -3 -9 -11
-1 -15 15 -3 34 16 26 8 -3 15 0 15 6 0 10 -12 15 -31 13 -3 -1 -6 5 -6 13 0
10 5 11 17 5 12 -6 17 -5 17 5 0 8 -4 12 -9 9 -4 -3 -8 0 -8 6 0 6 -6 8 -12 5
-7 -4 -2 3 12 15 14 12 19 19 13 15 -8 -4 -13 0 -13 10 0 10 -5 13 -12 9 -7
-4 -8 -3 -4 4 4 6 13 9 21 5 8 -3 15 0 15 6 0 6 -11 11 -25 11 -24 0 -24 1 -8
19 9 11 21 17 27 14 6 -4 7 -2 3 3 -5 5 -13 10 -18 10 -5 1 -12 2 -15 3 -3 0
4 10 17 21 18 15 20 20 7 18 -9 -2 -17 2 -17 7 -1 6 3 10 8 10 5 0 13 3 17 7
4 5 2 8 -5 8 -8 0 -10 7 -6 20 4 12 2 20 -6 20 -8 0 -8 5 2 17 8 9 9 14 3 10
-6 -3 -11 0 -11 8 0 8 4 12 8 10 9 -6 22 26 13 34 -4 3 -9 0 -11 -6 -3 -7 -9
-13 -15 -13 -6 0 -4 7 3 17 11 13 11 17 2 20 -7 3 -13 9 -13 14 0 6 4 8 8 5 5
-3 9 13 8 34 0 22 -5 40 -11 40 -7 0 -7 3 0 8 12 8 14 382 2 382 -5 0 -5 5 -2
11 4 6 7 53 8 104 0 59 4 92 10 88 6 -4 7 -1 1 8 -11 18 -5 70 9 88 9 12 9 13
0 7 -22 -12 -10 36 14 63 17 19 20 29 11 44 -8 15 -7 18 3 12 9 -6 11 -3 6 9
-4 10 -2 26 3 37 8 13 7 19 0 19 -6 0 -8 5 -5 10 11 18 12 99 1 104 -7 3 -6 5
2 5 13 1 17 46 5 54 -5 2 -2 2 5 1 7 -2 15 3 18 11 4 8 11 15 16 15 6 0 5 -6
-2 -15 -7 -8 -8 -15 -2 -15 14 0 35 27 28 38 -3 5 0 9 7 9 7 0 13 -8 13 -18 0
-10 -3 -16 -6 -15 -3 2 -16 -8 -30 -23 -14 -14 -24 -25 -21 -24 2 1 12 -2 22
-7 15 -8 17 -7 14 9 -4 23 25 38 37 19 5 -9 8 -7 9 7 0 15 2 16 7 5 8 -18 32
-25 32 -9 0 5 4 8 10 4 5 -3 7 -12 3 -20 -6 -17 22 -21 32 -5 3 5 12 7 19 4 8
-3 17 -1 21 5 3 7 0 8 -9 5 -9 -3 -16 -1 -16 6 0 6 5 8 10 5 6 -3 10 0 10 7 1
7 6 4 13 -7 13 -22 30 -26 44 -11 5 5 3 6 -4 2 -7 -4 -13 -2 -13 4 0 6 -4 9
-8 6 -5 -3 -9 2 -9 10 0 10 4 11 11 4 5 -5 16 -10 24 -10 8 0 21 -8 29 -17 13
-16 13 -16 4 4 -8 16 -7 22 5 27 10 4 13 2 8 -6 -5 -7 -2 -9 8 -5 9 3 21 0 27
-6 9 -9 11 -8 6 4 -5 13 2 16 35 17 23 1 47 5 53 9 7 4 8 0 4 -13 -7 -19 -7
-19 8 0 8 10 12 23 9 27 -3 5 2 6 10 3 9 -3 16 -9 16 -13 0 -4 7 -8 15 -8 13
0 12 4 -2 21 -14 16 -14 18 -2 8 9 -6 30 -14 48 -16 26 -3 29 -1 20 11 -10 11
-8 12 7 6 17 -6 18 -5 4 12 -15 18 -14 18 13 1 23 -16 27 -16 27 -3 0 15 16
17 36 4 7 -4 15 0 18 9 3 8 2 12 -3 9 -5 -3 -12 -1 -15 4 -4 5 2 8 11 6 10 -1
24 3 32 9 12 9 12 7 1 -14 -12 -22 -11 -24 2 -13 8 7 19 9 23 5 5 -4 5 1 2 11
-4 9 -2 17 4 17 6 0 7 5 3 12 -5 7 -3 8 6 3 7 -4 16 -2 22 6 8 11 9 10 4 -3
-3 -10 -1 -20 4 -23 6 -4 10 1 10 11 0 13 3 14 13 5 16 -13 28 -5 21 14 -3 7
0 16 7 21 8 4 10 3 5 -4 -4 -7 -3 -12 3 -12 5 0 13 5 17 11 3 6 17 9 30 6 13
-2 21 0 18 4 -3 5 0 9 6 9 6 0 8 5 4 11 -4 8 -1 8 13 1 11 -6 25 -7 33 -2 8 5
18 6 22 4 5 -3 11 1 14 10 3 9 12 12 21 9 12 -5 14 -3 8 7 -6 10 -4 11 6 4 19
-12 51 -12 66 -1 7 5 17 6 24 2 8 -6 8 -2 0 14 -10 17 -9 20 4 15 8 -4 15 -10
15 -16 0 -5 5 -6 10 -3 6 3 10 11 10 16 0 6 -4 8 -9 4 -5 -3 -13 0 -17 6 -4 8
-3 9 4 5 7 -4 12 -3 12 3 0 5 8 8 18 7 9 -2 20 2 24 8 5 8 8 7 8 -1 0 -7 5
-13 10 -13 6 0 10 7 10 15 0 8 5 15 11 15 5 0 7 -4 4 -10 -3 -5 -2 -10 3 -10
15 0 22 28 9 33 -7 2 14 3 45 2 45 -1 55 1 47 11 -7 8 -6 14 2 20 7 4 9 3 6
-3 -4 -6 2 -13 14 -16 16 -4 18 -3 9 8 -8 10 -8 15 1 21 7 4 9 3 6 -3 -4 -6 0
-14 9 -17 9 -3 12 -2 9 5 -8 12 14 41 26 34 4 -3 13 4 19 15 10 18 14 19 28 8
9 -7 14 -8 10 -4 -9 11 31 48 43 41 4 -3 10 -1 14 5 4 6 11 7 17 4 7 -4 7 0 0
13 -9 16 -7 19 11 20 18 2 19 0 7 -8 -13 -9 -13 -10 0 -6 8 2 14 14 14 26 -1
17 1 19 12 10 8 -6 11 -15 8 -20 -3 -5 2 -6 12 -2 15 5 15 7 0 15 -9 5 -16 14
-16 20 0 6 7 5 17 -3 11 -10 14 -10 9 -1 -7 11 -3 13 34 16 8 1 14 10 13 19 0
12 4 16 12 13 7 -2 16 2 19 10 3 9 11 12 17 8 8 -4 9 -3 5 4 -4 7 -2 12 5 12
7 0 9 3 6 6 -4 4 -18 -1 -31 -10 -15 -9 -27 -12 -31 -6 -3 6 1 10 9 10 9 0 13
6 10 14 -3 8 -1 17 5 21 7 3 8 0 5 -9 -3 -9 -1 -16 5 -16 10 0 15 14 12 34 -1
4 6 14 16 22 14 11 15 13 3 14 -13 0 -13 2 0 9 20 13 34 2 19 -15 -9 -11 -9
-14 0 -14 7 0 9 -5 5 -11 -5 -8 -9 -8 -14 1 -5 8 -9 5 -13 -9 -7 -28 4 -26 33
4 12 13 27 22 33 18 6 -3 7 -1 3 6 -6 9 -11 9 -22 0 -10 -8 -14 -8 -14 -1 0
14 30 30 48 26 7 -1 8 0 2 3 -5 2 -7 9 -4 15 4 5 -5 2 -20 -7 -29 -19 -36 -10
-8 12 15 12 14 13 -13 8 -28 -5 -29 -5 -6 5 37 16 65 19 79 8 6 -6 12 -7 12
-3 0 4 -6 13 -14 19 -7 6 -17 25 -21 41 -5 22 -3 27 5 19 6 -6 12 -21 13 -33
1 -11 5 -21 10 -21 5 0 7 7 4 15 -4 8 -2 17 3 20 6 4 10 12 10 18 0 8 -3 8 -9
-1 -7 -11 -9 -11 -14 1 -4 11 0 15 14 12 10 -2 19 1 19 7 0 7 5 6 14 -1 10 -8
16 -9 21 -1 4 6 1 9 -7 8 -8 -2 -12 5 -10 17 2 11 4 28 6 37 1 10 5 20 8 24 4
3 5 11 4 17 -2 7 -1 9 1 4 3 -4 10 -4 16 0 7 4 6 -1 -2 -10 -9 -11 -10 -17 -2
-17 6 0 11 5 11 11 0 5 6 7 13 3 6 -4 2 4 -11 18 -17 18 -20 28 -12 33 9 6 9
10 -1 16 -11 7 -9 9 6 9 20 1 20 1 1 15 -11 8 -15 15 -9 15 7 0 14 -4 18 -10
7 -11 35 -2 35 12 0 5 -4 6 -10 3 -5 -3 -10 -1 -10 5 0 7 7 9 16 6 10 -4 14
-2 11 6 -2 7 -10 12 -16 11 -18 -5 -13 14 7 21 9 3 23 9 30 12 6 3 12 1 12 -5
0 -6 -5 -10 -12 -8 -7 1 -12 -11 -11 -31 0 -26 -5 -35 -23 -43 -13 -4 -24 -12
-25 -16 0 -5 -2 -16 -4 -25 -3 -14 0 -16 15 -8 11 6 22 16 26 23 5 8 2 7 -9
-2 -15 -12 -17 -11 -17 3 0 9 8 16 20 16 11 0 20 6 20 13 0 8 3 9 8 1 5 -8 13
-6 25 6 18 17 18 18 0 17 -12 -1 -18 5 -18 18 0 14 6 19 20 17 16 -2 17 -1 5
7 -13 9 -12 12 5 24 18 14 17 15 -13 13 -17 0 -32 4 -32 9 0 6 10 11 22 11 12
1 27 9 33 18 7 8 14 14 17 11 2 -3 5 2 5 10 0 8 -3 13 -5 10 -3 -3 -11 0 -18
6 -10 8 -11 15 -1 30 9 15 8 22 -11 40 -13 11 -21 27 -18 35 3 7 1 16 -5 19
-13 9 -1 25 18 25 9 0 13 -6 9 -15 -3 -8 -9 -21 -12 -29 -3 -9 3 -19 15 -26
14 -7 21 -7 21 0 0 5 -7 10 -15 10 -8 0 -15 5 -15 11 0 5 5 7 11 4 6 -4 10 -1
8 6 -3 27 1 40 12 34 6 -4 5 2 -3 14 -7 12 -16 21 -21 21 -4 0 -5 -5 -1 -12 4
-6 3 -8 -3 -5 -6 4 -22 -2 -35 -12 -18 -14 -28 -17 -39 -9 -11 8 -11 9 3 5 20
-7 37 11 33 36 -2 9 1 17 7 17 6 0 8 -7 4 -15 -6 -16 9 -21 18 -6 11 16 -5 40
-22 34 -15 -4 -15 -3 -2 6 13 9 12 11 -5 11 -15 0 -16 3 -7 9 11 7 11 11 -2
24 -9 8 -16 22 -16 29 0 10 2 10 9 -1 7 -10 10 -10 16 -1 8 14 -14 32 -28 23
-5 -3 -4 4 2 16 7 11 14 21 17 21 3 0 3 -4 -1 -9 -3 -6 4 -15 16 -21 15 -8 19
-9 15 -1 -4 6 -3 11 1 11 5 0 9 11 9 25 0 23 -1 24 -19 7 -19 -16 -19 -16 -13
6 8 25 -11 31 -32 10 -9 -9 -12 -7 -12 11 0 14 4 20 12 15 7 -4 8 -3 4 5 -4 6
-12 9 -17 6 -5 -3 -6 1 -3 10 6 14 8 14 24 0 9 -8 23 -15 31 -14 8 0 3 5 -11
10 -20 8 -22 12 -10 20 13 9 13 10 -1 6 -9 -3 -22 0 -29 6 -10 9 -11 9 -5 -1
4 -9 0 -15 -14 -19 -12 -3 -21 -10 -21 -15 0 -5 4 -7 9 -4 5 3 11 -1 15 -9 7
-18 -3 -19 -27 -1 -17 13 -17 15 7 40 27 26 33 46 15 46 -5 0 -8 -4 -4 -9 3
-5 1 -12 -4 -15 -5 -3 -11 3 -14 14 -3 10 0 21 7 24 8 3 8 5 -1 5 -18 1 -25
-17 -14 -38 8 -14 7 -20 -4 -25 -8 -3 -17 0 -21 6 -4 7 -3 8 4 4 7 -4 12 -2
12 3 0 6 -4 11 -9 11 -10 0 -9 26 2 36 15 15 6 24 -19 20 -19 -4 -24 -1 -21 9
3 7 -1 16 -8 19 -9 3 -12 12 -8 21 5 14 8 14 15 3 8 -10 9 -10 5 2 -2 8 -10
15 -18 15 -8 1 -13 7 -11 14 1 7 -2 10 -7 7 -5 -4 -12 -2 -16 4 -4 6 -11 8
-16 5 -5 -4 -9 1 -9 9 0 9 -5 16 -11 16 -5 0 -7 -4 -4 -10 4 -6 -1 -7 -12 -4
-13 4 -12 0 6 -16 13 -11 30 -19 37 -16 7 3 16 1 19 -4 4 -6 1 -10 -5 -10 -7
0 -20 -10 -29 -22 -14 -17 -18 -18 -18 -5 0 9 4 14 9 11 4 -3 8 0 8 5 0 10
-14 15 -32 12 -5 0 -8 4 -8 10 0 8 -4 8 -14 0 -11 -9 -16 -9 -22 0 -4 7 -3 9
4 5 9 -5 24 8 28 24 4 22 18 39 28 33 6 -3 8 -2 3 2 -4 5 -18 10 -30 12 -13 2
-17 0 -10 -5 8 -5 7 -12 -4 -27 -15 -19 -15 -19 -8 4 5 18 4 22 -6 16 -8 -3
-3 4 11 16 15 13 18 20 8 16 -20 -7 -31 3 -18 17 6 8 3 12 -11 13 -20 2 -26
-12 -9 -22 15 -9 12 -22 -6 -29 -14 -5 -15 -4 -4 9 8 9 9 15 2 15 -6 0 -16 -8
-21 -17 -6 -10 -11 -13 -11 -6 0 6 5 15 12 19 7 5 5 12 -8 22 -15 11 -15 13
-2 9 9 -3 19 0 21 7 3 7 -2 13 -11 13 -20 0 -44 -16 -38 -26 3 -4 -6 -7 -19
-7 -20 0 -27 11 -7 11 4 0 13 4 20 8 16 11 5 28 -14 20 -12 -4 -13 -1 -5 19 7
19 6 25 -5 25 -8 0 -13 -6 -10 -13 3 -8 1 -16 -3 -19 -5 -2 -8 11 -6 31 1 23
-2 33 -10 31 -6 -3 -21 6 -34 19 -13 13 -27 22 -31 19 -5 -3 -15 -2 -24 1 -13
5 -14 9 -5 20 9 12 9 13 -4 9 -8 -4 -18 -2 -22 4 -3 6 -19 11 -36 11 -16 0
-29 5 -29 11 0 5 4 8 8 5 5 -3 9 1 9 9 0 8 -3 12 -7 10 -4 -2 -16 2 -26 10
-22 16 -48 20 -39 5 3 -5 -1 -10 -9 -10 -19 0 -20 11 -3 29 10 11 8 13 -9 9
-16 -4 -25 1 -35 18 -14 26 -24 30 -35 12 -5 -7 -3 -8 6 -3 9 6 11 4 5 -5 -5
-8 -4 -11 3 -6 6 3 13 2 17 -4 9 -14 -17 -12 -37 4 -12 9 -14 16 -7 23 8 8 7
13 -2 18 -7 5 -10 4 -6 -2 4 -7 -4 -10 -21 -10 -16 1 -29 7 -29 14 0 7 4 10 9
7 4 -3 8 0 8 5 0 15 -27 14 -33 -1 -3 -8 -6 -5 -6 6 -1 12 -6 16 -17 12 -11
-4 -15 -2 -11 8 4 11 1 13 -10 9 -12 -5 -15 -2 -10 9 4 11 1 14 -12 11 -9 -2
-25 5 -35 16 -15 16 -23 18 -44 10 -15 -6 -23 -7 -20 -3 15 14 -11 42 -33 37
-14 -4 -20 -2 -16 4 9 15 -18 24 -31 11 -6 -6 -12 -6 -17 3 -5 8 -4 10 3 5 7
-4 12 -2 12 3 0 6 -10 11 -23 11 -13 0 -29 6 -36 13 -9 8 -12 8 -7 0 3 -6 -11
-3 -31 7 -21 11 -52 25 -70 32 -17 7 -29 16 -27 20 3 4 -7 8 -21 8 -14 0 -24
4 -21 8 5 9 3 9 -44 14 -30 4 -50 19 -42 33 3 6 -3 3 -13 -5 -11 -9 -16 -10
-11 -2 5 8 0 12 -13 12 -12 0 -21 4 -21 9 0 9 -25 21 -43 21 -4 -1 -15 6 -23
15 -9 8 -21 15 -27 15 -7 0 -6 -4 3 -10 8 -5 11 -10 6 -10 -5 0 -18 8 -29 18
-15 12 -18 13 -12 2 8 -13 6 -13 -8 -1 -9 7 -15 17 -12 20 2 4 -2 8 -10 8 -11
0 -12 -5 -3 -21 11 -20 10 -20 -9 -4 -15 14 -22 15 -31 6 -7 -7 -12 -9 -12 -6
0 4 7 13 15 21 13 13 13 16 -1 21 -8 3 -12 2 -9 -3 3 -5 1 -12 -5 -16 -5 -3
-10 3 -10 14 0 15 -6 21 -21 21 -11 0 -17 -4 -14 -10 10 -16 -1 -11 -16 7 -10
11 -10 14 -1 9 6 -4 12 -2 12 3 0 6 -7 11 -15 11 -9 0 -30 7 -48 15 -29 14
-30 14 -13 0 11 -8 15 -15 8 -15 -7 0 -17 9 -24 19 -9 15 -15 17 -25 9 -10 -8
-12 -7 -7 6 5 12 2 15 -12 9 -11 -4 -15 -3 -11 4 4 6 0 13 -7 16 -8 3 -17 1
-20 -6 -2 -7 -5 -4 -5 6 -1 10 -5 15 -11 12 -5 -3 -10 -1 -10 4 0 6 -9 11 -20
11 -11 0 -20 5 -20 11 0 5 -5 7 -11 4 -6 -4 -17 1 -24 11 -8 11 -15 15 -15 11
0 -12 -60 31 -97 71 -18 19 -37 31 -44 27 -8 -5 -9 -1 -4 15 5 15 4 20 -4 16
-6 -4 -14 0 -17 8 -3 9 -11 13 -17 9 -6 -4 -8 0 -4 10 4 11 1 17 -9 17 -8 0
-12 5 -9 10 3 6 2 10 -3 10 -6 0 -13 11 -16 25 -4 16 -11 23 -18 19 -7 -5 -9
2 -6 19 3 16 0 31 -8 38 -17 14 -19 43 -2 33 6 -4 8 -3 4 4 -3 6 -18 9 -31 6
-27 -5 -31 2 -14 26 9 13 10 12 5 -3 -5 -15 -3 -16 14 -7 11 6 20 13 20 16 0
3 -4 3 -9 -1 -5 -3 -13 0 -17 6 -3 6 0 15 7 20 12 7 11 9 -1 9 -13 0 -13 1 0
10 11 8 6 9 -20 6 -19 -3 -29 -3 -22 0 6 3 12 13 12 22 0 15 -2 15 -10 2 -5
-8 -10 -10 -10 -4 0 6 3 13 6 17 9 9 35 -4 28 -14 -3 -5 0 -9 6 -9 7 0 10 7 6
15 -3 8 0 15 7 15 8 0 7 4 -3 10 -13 9 -13 11 0 20 12 7 10 9 -7 7 -18 -1 -20
-4 -12 -22 9 -18 9 -19 -4 -3 -8 10 -16 15 -19 12 -3 -2 -8 2 -11 10 -4 11 -1
13 11 9 15 -6 16 -5 2 12 -8 10 -10 16 -3 12 6 -4 14 -3 18 3 3 5 1 10 -6 10
-7 0 -10 3 -6 6 3 3 11 3 17 -1 8 -5 8 -11 -1 -21 -8 -10 -8 -14 0 -14 6 0 11
5 11 11 0 5 6 7 13 3 9 -6 9 -4 0 7 -16 16 -17 33 -1 23 7 -4 8 -3 4 4 -4 6
-14 9 -24 6 -15 -5 -15 -5 1 6 9 6 23 8 30 4 8 -5 7 -2 -2 9 -11 14 -11 17 0
17 9 1 7 6 -6 16 -20 16 -19 16 4 9 15 -5 21 -3 17 3 -3 6 8 15 24 21 17 5 30
13 30 16 0 3 -4 4 -8 1 -5 -3 -9 2 -9 10 0 10 4 11 11 4 14 -14 29 -13 20 2
-5 7 -3 8 7 3 17 -11 50 -14 44 -4 -3 4 5 9 16 12 14 4 18 10 13 19 -6 10 -4
10 9 -1 9 -7 17 -9 17 -4 0 13 29 10 58 -5 12 -7 22 -11 22 -8 0 3 14 1 32 -4
20 -6 36 -6 44 1 8 7 14 7 19 -1 4 -6 3 -9 -2 -8 -8 3 -13 -5 -13 -22 0 -5 7
-7 15 -4 8 4 15 2 15 -4 0 -6 8 -8 19 -5 10 3 22 -1 26 -8 5 -8 4 -10 -3 -5
-7 4 -12 3 -12 -2 0 -14 26 -33 33 -25 7 6 11 -12 8 -31 -1 -5 5 -6 14 -3 10
4 15 1 15 -10 0 -9 8 -25 18 -36 12 -15 13 -18 2 -12 -8 5 0 -8 18 -30 31 -39
44 -73 20 -59 -7 4 -8 3 -4 -5 4 -6 11 -9 15 -7 4 3 13 1 20 -4 16 -9 5 -33
-12 -24 -7 3 -3 -1 7 -10 10 -8 23 -13 27 -10 5 3 9 -2 9 -11 0 -10 -5 -14
-12 -9 -7 4 -3 -3 10 -15 23 -22 30 -37 12 -26 -5 3 -10 1 -10 -4 0 -6 7 -11
15 -11 18 0 19 -11 3 -29 -9 -10 -9 -12 -1 -7 6 3 14 2 18 -4 4 -6 12 -7 18
-3 9 5 9 3 1 -8 -18 -22 -10 -63 12 -68 17 -3 17 -2 4 15 -11 13 -12 16 -1 10
8 -5 17 -3 23 5 8 11 9 10 4 -4 -4 -12 3 -27 21 -43 29 -27 39 -29 49 -12 5 7
2 9 -9 5 -20 -8 -44 20 -30 34 8 8 13 7 17 0 9 -14 36 -14 36 0 0 6 -6 9 -13
6 -8 -3 -14 1 -14 9 0 8 10 14 24 14 20 0 23 4 18 21 -5 14 -3 19 3 15 6 -3
13 -2 17 4 4 6 10 8 14 5 5 -2 6 7 3 20 -3 16 0 25 8 25 7 0 2 9 -11 20 l-24
19 23 -4 c15 -3 22 0 19 8 -2 7 -9 12 -14 12 -6 0 -15 4 -20 9 -4 5 -3 6 4 2
7 -4 17 4 26 21 12 25 13 34 8 61 -1 4 -6 0 -11 -8 -8 -13 -11 -13 -22 -1 -8
9 -9 11 -1 7 20 -11 26 15 7 30 -18 14 -18 14 3 5 28 -14 34 -14 31 2 -2 6 3
11 11 9 11 -2 12 0 3 11 -9 10 -9 16 0 25 7 7 8 12 2 12 -5 0 -17 -12 -27 -27
-17 -26 -18 -26 -11 -4 4 16 3 21 -5 17 -6 -4 -11 -2 -11 3 0 6 7 11 15 11 8
0 12 6 9 15 -3 8 -11 13 -17 12 -8 -1 -12 16 -11 50 0 29 -2 50 -5 48 -4 -2
-6 27 -6 65 0 37 3 66 7 63 5 -2 8 1 8 6 0 6 -4 11 -9 11 -5 0 -8 15 -7 33 2
25 7 33 25 35 15 2 21 0 16 -7 -3 -6 -10 -9 -15 -6 -17 11 -17 -24 0 -50 17
-26 62 -62 46 -37 -3 6 0 13 6 16 7 3 2 3 -12 0 -14 -4 -22 -3 -18 1 3 3 -3
16 -14 27 -11 11 -17 23 -13 26 3 4 11 0 16 -8 9 -13 10 -12 5 2 -3 10 -1 20
4 23 10 6 14 -7 11 -32 -1 -6 2 -14 6 -16 5 -3 8 8 8 24 1 16 -3 29 -8 29 -4
0 -6 3 -3 8 6 9 -15 36 -32 39 -19 4 -14 -15 6 -20 11 -3 7 -5 -10 -6 -23 -1
-26 3 -23 25 3 32 16 41 54 38 17 -1 32 4 35 11 4 10 -2 11 -25 5 -23 -7 -29
-5 -29 6 0 8 5 12 10 9 6 -4 9 -1 8 7 -2 7 4 12 14 10 12 -2 16 2 12 13 -3 8
-11 12 -18 8 -6 -4 -15 -8 -21 -8 -5 0 -11 -6 -11 -12 -1 -7 -3 -16 -4 -20 -1
-5 -2 -12 -1 -17 1 -5 -6 -3 -15 5 -16 13 -16 14 0 17 9 2 14 8 10 13 -3 5
-10 7 -15 4 -19 -13 -8 5 24 35 31 30 32 31 6 25 -19 -5 -26 -2 -26 9 0 11 4
13 12 6 7 -6 16 -5 23 2 17 17 15 33 -2 19 -10 -8 -16 -9 -21 -1 -3 5 1 10 10
10 9 0 13 5 10 10 -3 6 -1 10 4 10 6 0 12 -6 13 -12 0 -7 2 -17 2 -23 2 -11
15 -15 33 -8 7 3 10 9 7 14 -3 5 -10 7 -15 4 -5 -4 -9 -1 -9 4 0 6 7 11 15 11
12 0 14 7 9 26 -5 19 -4 25 5 20 6 -4 11 0 11 10 0 11 -6 15 -19 11 -14 -3
-18 -1 -14 9 3 8 9 11 14 8 16 -9 33 7 18 18 -11 7 -11 11 -1 15 6 2 9 10 5
16 -4 7 0 8 11 4 11 -4 15 -3 11 4 -4 6 -22 9 -40 7 -19 -1 -36 0 -39 3 -4 3
0 6 6 7 31 2 74 14 83 23 7 7 4 8 -6 4 -27 -10 -32 12 -7 29 l22 16 -24 1
c-14 1 -35 1 -47 2 -12 0 -20 4 -17 8 3 5 18 7 35 4 18 -3 29 -1 29 6 0 6 7 9
15 6 8 -4 16 -3 19 1 3 4 -5 9 -16 9 -26 2 -36 12 -21 21 6 4 14 19 18 34 5
20 3 27 -12 31 -16 4 -16 5 0 6 9 0 17 6 17 12 0 5 5 7 10 4 6 -3 10 -2 10 4
0 5 -6 11 -12 14 -10 3 -10 7 1 20 12 15 11 17 -5 17 -11 0 -15 4 -9 8 13 9
19 30 19 70 0 17 4 32 8 32 4 0 8 5 8 11 0 5 -4 7 -10 4 -5 -3 -10 -1 -10 5 0
6 10 15 23 20 12 5 17 9 11 9 -5 1 -19 8 -30 17 -10 8 -13 13 -7 9 7 -3 20 -2
29 3 15 8 15 10 0 15 -9 4 -16 11 -16 17 0 6 5 8 10 5 6 -4 10 5 10 19 0 16 6
26 14 26 8 0 17 4 20 9 4 5 -3 7 -14 4 -12 -3 -20 0 -20 7 0 10 -3 10 -15 0
-10 -8 -15 -9 -15 -2 0 7 15 16 33 21 17 5 25 10 15 10 -10 1 -15 8 -13 19 1
10 9 16 20 14 16 -3 17 -2 2 12 -8 9 -21 16 -28 16 -19 0 -5 10 21 15 12 2 25
7 29 11 3 4 -2 5 -11 1 -9 -3 -19 0 -22 9 -3 8 -1 14 3 14 5 0 7 9 4 20 -3 11
-1 20 4 20 5 0 18 7 29 16 19 15 19 15 -1 5 -14 -6 -26 -5 -40 5 -18 14 -18
14 3 14 24 0 30 15 10 23 -10 4 -10 6 0 6 7 1 10 6 6 13 -4 7 -3 8 4 4 7 -4
12 -2 12 4 0 6 -10 14 -22 19 -22 8 -22 8 -2 15 29 9 32 66 3 66 -10 0 -19 5
-19 11 0 5 4 8 9 5 5 -4 20 -2 33 3 23 9 23 9 -22 24 -10 4 -8 6 6 6 19 1 32
21 32 48 0 3 6 10 14 14 9 6 5 9 -14 9 -31 0 -45 17 -29 33 9 9 11 8 6 -5 -9
-22 8 -23 25 -3 9 11 15 13 20 5 5 -8 9 -6 13 5 4 9 3 13 -3 10 -6 -3 -10 1
-10 9 0 9 7 16 16 16 8 0 12 5 9 10 -4 7 -12 7 -24 0 -10 -5 -22 -6 -27 -2 -5
4 -2 -1 5 -11 18 -23 12 -27 -29 -17 -31 7 -25 15 9 11 7 -2 10 2 7 7 -8 13
18 34 29 24 5 -4 5 -2 1 5 -3 6 -2 14 4 18 5 3 10 1 10 -5 0 -6 5 -8 10 -5 16
10 11 23 -7 21 -19 -3 -56 42 -47 56 7 12 1 10 -22 -7z m-39 -114 c3 -5 2 -12
-3 -15 -5 -3 -9 1 -9 9 0 17 3 19 12 6z m-1 -49 c2 -4 -5 -9 -17 -9 -17 -2
-19 0 -7 7 18 12 18 12 24 2z m71 -40 c-12 -12 -43 -11 -48 1 -4 10 3 12 25 9
16 -2 26 -7 23 -10z m-85 3 c0 -7 -30 -13 -34 -7 -3 4 4 9 15 9 10 1 19 0 19
-2z m30 -285 c0 -5 -8 -10 -17 -10 -15 0 -16 2 -3 10 19 12 20 12 20 0z m-15
-50 c3 -6 -1 -7 -9 -4 -18 7 -21 14 -7 14 6 0 13 -4 16 -10z m-8 -76 c-3 -3
-12 -4 -19 -1 -8 3 -5 6 6 6 11 1 17 -2 13 -5z m-362 -123 c3 -5 2 -12 -3 -15
-5 -3 -9 1 -9 9 0 17 3 19 12 6z m-98 -187 c-3 -3 -12 -4 -19 -1 -8 3 -5 6 6
6 11 1 17 -2 13 -5z m-102 -44 c-3 -5 -12 -10 -20 -10 -8 0 -17 5 -20 10 -4 6
5 10 20 10 15 0 24 -4 20 -10z m82 4 c-3 -3 -12 -4 -19 -1 -8 3 -5 6 6 6 11 1
17 -2 13 -5z m-123 -38 c3 2 4 1 1 -3 -9 -12 -55 -9 -55 4 0 9 7 10 24 3 13
-5 27 -7 30 -4z m66 0 c0 -9 -40 -13 -46 -5 -3 5 6 9 20 9 14 0 26 -2 26 -4z
m-26 -45 c-2 -3 -12 3 -22 13 -16 17 -16 18 5 5 12 -7 20 -15 17 -18z m-89 0
c3 -6 -4 -8 -15 -6 -11 2 -20 -1 -20 -6 0 -6 -4 -7 -10 -4 -5 3 -10 10 -10 16
0 12 47 12 55 0z m40 -19 c-3 -3 -11 0 -18 7 -9 10 -8 11 6 5 10 -3 15 -9 12
-12z m-67 -24 c9 -9 12 -9 12 0 0 7 15 12 37 12 38 0 39 -12 1 -14 -13 -1 -27
-4 -33 -7 -5 -4 -23 0 -40 7 -24 10 -26 13 -9 14 11 0 25 -5 32 -12z m7 -38
c-11 -4 -37 -6 -58 -3 -37 5 -38 4 -27 -16 6 -12 15 -19 20 -16 20 12 50 13
56 3 5 -7 0 -9 -14 -6 -12 4 -22 3 -22 -1 0 -5 -12 -7 -27 -6 -22 1 -28 6 -30
28 -2 26 -1 27 60 25 40 0 55 -3 42 -8z m589 -58 c2 -4 -5 -9 -17 -9 -17 -2
-19 0 -7 7 18 12 18 12 24 2z m-712 -19 c-6 -3 -9 -10 -5 -16 5 -8 2 -8 -9 0
-8 7 -18 10 -21 6 -10 -9 -57 -10 -57 -1 0 4 -5 8 -11 8 -5 0 -8 -4 -5 -8 3
-5 -1 -9 -8 -9 -7 0 -13 6 -13 13 0 9 21 12 71 12 39 0 65 -3 58 -5z m53 0
c-11 -3 -27 -10 -35 -17 -13 -10 -13 -9 -1 7 7 9 23 16 35 16 20 -1 20 -2 1
-6z m599 -29 c3 -8 2 -12 -4 -9 -6 3 -10 10 -10 16 0 14 7 11 14 -7z m41 -43
c-3 -6 -11 -11 -16 -11 -5 0 -4 6 3 14 14 16 24 13 13 -3z m-848 -15 c12 0 20
-2 18 -6 -3 -5 -16 -7 -30 -5 -18 2 -25 -2 -23 -14 2 -10 -5 -16 -19 -17 -13
-1 -23 3 -23 7 0 5 7 9 16 9 10 0 14 6 11 14 -7 18 3 28 17 18 6 -5 21 -7 33
-6z m823 -16 c0 -5 -5 -10 -11 -10 -5 0 -7 5 -4 10 3 6 8 10 11 10 2 0 4 -4 4
-10z m25 -38 c-3 -3 0 -11 6 -19 9 -9 8 -13 0 -13 -6 0 -11 5 -11 11 0 5 -4 7
-10 4 -5 -3 -10 0 -10 8 0 7 7 14 15 14 8 0 13 -3 10 -5z m-1000 -72 c-3 -5
-11 -10 -16 -10 -6 0 -7 5 -4 10 3 6 11 10 16 10 6 0 7 -4 4 -10z m-83 -38 c4
-12 -1 -18 -13 -18 -22 0 -24 7 -7 24 15 15 15 15 20 -6z m38 4 c0 -3 -4 -8
-10 -11 -5 -3 -10 -1 -10 4 0 6 5 11 10 11 6 0 10 -2 10 -4z m-125 -106 c3 -5
1 -10 -4 -10 -6 0 -11 5 -11 10 0 6 2 10 4 10 3 0 8 -4 11 -10z m-105 -234 c0
-2 -7 -7 -16 -10 -8 -3 -12 -2 -9 4 6 10 25 14 25 6z m-450 -16 c0 -5 -9 -10
-21 -10 -11 0 -17 5 -14 10 3 6 13 10 21 10 8 0 14 -4 14 -10z m872 -42 c-7
-7 -10 -5 -7 8 5 29 6 30 12 16 3 -8 1 -18 -5 -24z m488 28 c0 -11 -19 -15
-25 -6 -3 5 1 10 9 10 9 0 16 -2 16 -4z m-1402 -28 c8 -10 3 -13 -19 -13 -26
0 -27 1 -12 13 9 6 18 12 19 12 1 0 6 -6 12 -12z m129 -2 c4 -5 -1 -7 -14 -3
-13 3 -23 2 -23 -2 0 -4 -7 -8 -15 -8 -8 0 -15 4 -15 9 0 5 -5 6 -12 2 -6 -4
-8 -3 -5 2 7 12 73 12 84 0z m-12 -44 c-3 -3 -20 -7 -37 -8 -22 -2 -28 0 -18
6 8 5 18 6 22 4 4 -3 8 -1 8 5 0 6 7 8 15 4 9 -3 13 -8 10 -11z m745 -12 c0
-5 -5 -10 -11 -10 -5 0 -7 5 -4 10 3 6 8 10 11 10 2 0 4 -4 4 -10z m590 0 c12
-7 10 -9 -8 -7 -12 0 -22 5 -22 9 0 11 12 10 30 -2z m-1366 -19 c3 -5 -1 -12
-10 -15 -23 -9 -34 -7 -34 5 0 5 5 7 10 4 6 -3 10 -1 10 4 0 13 17 14 24 2z
m16 -57 c0 -2 -9 -4 -21 -4 -11 0 -18 4 -14 10 5 8 35 3 35 -6z m-253 -40 c-3
-3 -12 -4 -19 -1 -8 3 -5 6 6 6 11 1 17 -2 13 -5z m1873 -78 c-10 -13 -40 -12
-40 1 0 3 7 3 15 0 8 -4 17 -2 20 3 4 6 9 10 12 10 3 0 0 -6 -7 -14z m-871
-22 c-6 -8 -17 -14 -23 -14 -6 0 -4 5 4 10 13 9 13 10 0 10 -13 0 -13 2 0 9
20 13 34 2 19 -15z m18 -67 c-3 -7 4 -19 15 -26 21 -13 18 -23 -8 -27 -12 -2
-13 1 -3 12 9 11 8 14 -4 14 -8 0 -18 7 -21 16 -3 8 -2 12 4 9 6 -3 10 -1 10
4 0 6 3 11 6 11 3 0 4 -6 1 -13z m833 -43 c0 -20 -7 -17 -20 6 -9 16 -8 18 5
14 8 -4 15 -12 15 -20z m-1840 -160 c0 -8 -5 -12 -10 -9 -6 4 -8 11 -5 16 9
14 15 11 15 -7z m65 -92 c-3 -3 -11 0 -18 7 -9 10 -8 11 6 5 10 -3 15 -9 12
-12z m10 -32 c3 -5 1 -10 -4 -10 -6 0 -11 5 -11 10 0 6 2 10 4 10 3 0 8 -4 11
-10z m685 -14 c0 -3 -4 -8 -10 -11 -5 -3 -10 -1 -10 4 0 6 5 11 10 11 6 0 10
-2 10 -4z m160 -88 c0 -3 -9 -6 -20 -5 -11 1 -20 5 -20 9 0 3 9 6 20 5 11 -1
20 -5 20 -9z m-694 -44 c-4 -12 -1 -14 13 -9 11 3 22 1 26 -5 4 -6 3 -10 -2
-9 -4 1 -10 0 -13 -1 -15 -5 -41 -8 -36 -3 3 4 0 13 -7 21 -9 13 -9 14 1 8 6
-4 12 -2 12 3 0 6 3 11 6 11 3 0 3 -7 0 -16z m473 -167 c9 3 7 -1 -6 -11 -26
-19 -59 -12 -40 9 7 7 16 10 21 5 5 -5 16 -6 25 -3z m88 -9 c-3 -8 -6 -5 -6 6
-1 11 2 17 5 13 3 -3 4 -12 1 -19z m-27 2 c0 -5 -5 -10 -11 -10 -5 0 -7 5 -4
10 3 6 8 10 11 10 2 0 4 -4 4 -10z m164 -8 c3 -5 -1 -9 -9 -9 -8 0 -12 4 -9 9
3 4 7 8 9 8 2 0 6 -4 9 -8z m76 -64 c0 -4 -4 -8 -9 -8 -6 0 -12 4 -15 8 -3 5
1 9 9 9 8 0 15 -4 15 -9z m253 -82 c6 -15 -47 -16 -62 -1 -7 7 1 11 24 12 19
1 35 -4 38 -11z m67 5 c0 -11 -31 -24 -39 -16 -3 3 1 10 9 15 19 12 30 12 30
1z m1035 -10 c3 -5 2 -12 -3 -15 -5 -3 -9 1 -9 9 0 17 3 19 12 6z m-975 -30
c0 -5 -5 -13 -12 -17 -7 -5 -8 -3 -3 7 7 11 6 12 -6 3 -20 -16 -80 -15 -66 1
13 14 87 19 87 6z m40 -41 c0 -5 -16 -9 -35 -8 -23 1 -31 4 -23 9 18 12 58 11
58 -1z m50 0 c0 -5 -4 -10 -9 -10 -6 0 -13 5 -16 10 -3 6 1 10 9 10 9 0 16 -4
16 -10z m-5 -29 c-3 -5 0 -13 6 -17 6 -3 15 0 20 7 6 10 9 8 9 -9 0 -15 4 -21
12 -16 6 4 8 3 4 -4 -9 -15 12 -26 28 -13 10 8 16 8 24 -2 21 -25 -38 -18 -70
8 -16 14 -40 25 -53 25 -34 0 -40 18 -8 23 16 2 29 5 31 6 2 0 1 -3 -3 -8z
m1222 -106 c0 -6 -6 -12 -12 -12 -6 0 -12 6 -12 12 0 6 6 12 12 12 6 0 12 -6
12 -12z m-1004 -31 c16 -10 14 -11 -13 -9 -38 3 -66 25 -29 23 13 -1 32 -7 42
-14z m1095 -24 c14 -22 8 -41 -11 -39 -9 0 -9 2 1 6 6 2 12 9 12 14 0 6 -5 7
-12 3 -7 -4 -8 -3 -4 4 6 11 -20 18 -47 13 -5 -1 -6 3 -2 9 11 17 50 11 63
-10z m-1038 -15 c33 -8 34 -9 10 -15 -25 -7 -70 7 -70 21 0 8 6 7 60 -6z m94
-7 c-3 -4 -9 -8 -15 -8 -5 0 -9 4 -9 8 0 5 7 9 15 9 8 0 12 -4 9 -9z m1011 -9
c4 -5 -5 -9 -19 -9 -14 0 -26 4 -26 8 0 11 39 12 45 1z m-48 -34 c0 -8 -4 -12
-9 -9 -5 3 -6 10 -3 15 9 13 12 11 12 -6z m81 -11 c2 -17 1 -17 -10 -3 -7 9
-20 14 -28 12 -13 -4 -13 -3 0 6 20 14 34 9 38 -15z m-1039 -19 c22 2 23 1 6
-12 -18 -12 -45 -18 -45 -9 0 2 -3 13 -7 23 -5 15 -4 16 8 7 8 -6 25 -10 38
-9z m1011 11 c0 -2 -7 -7 -16 -10 -8 -3 -12 -2 -9 4 6 10 25 14 25 6z m-940
-16 c-19 -13 -30 -13 -30 0 0 6 10 10 23 10 18 0 19 -2 7 -10z m-41 -34 c7 -8
8 -17 3 -20 -6 -3 -12 3 -15 14 -6 24 -4 25 12 6z m82 -14 c-7 -2 -18 1 -23 6
-8 8 -4 9 13 5 13 -4 18 -8 10 -11z m1009 -32 c-6 -11 -13 -20 -16 -20 -2 0 0
9 6 20 6 11 13 20 16 20 2 0 0 -9 -6 -20z m-985 -29 c-3 -6 -11 -8 -17 -5 -6
4 -5 9 3 15 16 10 23 4 14 -10z m1167 -93 c-6 -6 -15 -8 -19 -4 -4 4 -1 11 7
16 19 12 27 3 12 -12z m12 -26 c3 -5 -8 -9 -24 -9 -17 0 -30 3 -30 6 0 10 48
12 54 3z m-51 -37 c-3 -9 -8 -14 -10 -11 -3 3 -2 9 2 15 9 16 15 13 8 -4z
m100 5 c-8 -8 -83 -6 -83 3 0 4 20 6 44 5 24 -2 42 -5 39 -8z m-10 -26 c-7 -3
-10 -13 -7 -22 5 -15 4 -15 -9 0 -8 10 -17 15 -20 11 -4 -3 -7 -1 -7 5 0 7 12
12 28 11 15 0 22 -3 15 -5z m-1059 -31 c-10 -7 -22 -13 -26 -13 -5 0 -3 6 4
13 7 8 19 14 26 14 11 0 10 -4 -4 -14z m1030 -29 c3 -8 2 -12 -4 -9 -6 3 -10
10 -10 16 0 14 7 11 14 -7z m71 -64 c-14 -15 -21 -17 -32 -9 -7 6 -13 14 -13
17 0 3 5 1 11 -5 9 -9 15 -8 26 3 22 21 29 17 8 -6z m69 -2 c-10 -13 -19 -24
-19 -24 0 -1 -7 5 -15 14 -13 14 -12 15 3 9 11 -4 20 -1 23 8 4 8 11 15 17 15
5 0 2 -10 -9 -22z m40 -13 c-4 -8 -11 -15 -16 -15 -6 0 -5 6 2 15 7 8 14 15
16 15 2 0 1 -7 -2 -15z m-80 -50 c-9 -14 -18 -25 -21 -25 -5 0 5 18 20 38 17
22 18 13 1 -13z m-2689 -55 c-3 -5 -11 -10 -16 -10 -6 0 -7 5 -4 10 3 6 11 10
16 10 6 0 7 -4 4 -10z m-235 -34 c0 -2 -8 -10 -17 -17 -16 -13 -17 -12 -4 4
13 16 21 21 21 13z m480 -16 c0 -5 -5 -10 -11 -10 -5 0 -7 5 -4 10 3 6 8 10
11 10 2 0 4 -4 4 -10z m2451 -27 c-12 -20 -14 -14 -5 12 4 9 9 14 11 11 3 -2
0 -13 -6 -23z m-961 -38 c0 -2 -9 -3 -19 -2 -11 0 -18 5 -15 9 4 6 34 0 34 -7z
m1010 -20 c0 -8 -4 -15 -10 -15 -5 0 -7 7 -4 15 4 8 8 15 10 15 2 0 4 -7 4
-15z m-2692 -14 c-7 -11 -18 -17 -27 -13 -9 3 -13 2 -9 -2 3 -4 12 -8 20 -10
7 -1 18 -5 25 -9 6 -4 15 -2 19 4 4 7 3 9 -4 5 -6 -3 -14 -1 -18 5 -5 9 1 10
19 5 14 -3 29 -2 32 4 10 16 28 12 22 -5 -4 -8 -2 -17 4 -20 5 -4 7 -10 4 -15
-3 -4 3 -14 13 -21 14 -11 15 -11 5 1 -10 11 -10 17 0 29 10 12 9 13 -3 6 -13
-7 -13 -6 -2 7 10 13 10 17 0 21 -7 2 3 4 22 3 19 0 35 -6 35 -13 0 -6 4 -15
8 -19 4 -4 -2 -13 -14 -19 -19 -11 -19 -13 -5 -18 10 -4 15 -3 11 3 -3 6 3 10
15 10 14 0 19 4 14 13 -4 6 -3 8 1 4 14 -12 14 -36 0 -31 -7 3 -15 -2 -19 -11
-4 -11 -2 -14 7 -8 6 4 20 8 30 8 10 0 21 6 26 13 7 11 9 10 14 -3 4 -9 3 -13
-2 -10 -17 10 -21 -13 -5 -29 10 -11 11 -16 3 -16 -7 0 -9 -3 -6 -6 4 -4 14
-1 24 7 11 9 14 10 9 2 -4 -8 -1 -13 8 -14 9 -1 21 -3 26 -4 6 -1 13 -3 16 -4
3 0 2 -6 -2 -12 -4 -8 -9 -8 -17 0 -6 6 -16 11 -21 11 -6 0 0 -7 12 -16 12 -8
26 -13 30 -10 5 3 9 -1 9 -8 0 -8 -7 -12 -16 -9 -14 4 -14 4 -1 -6 11 -8 18
-7 27 6 11 14 12 11 8 -16 -2 -18 0 -29 6 -25 5 3 7 9 4 14 -3 5 0 12 7 16 7
4 10 4 6 -1 -4 -4 -2 -15 5 -23 10 -13 9 -14 -2 -8 -9 6 -12 5 -9 -5 3 -8 11
-13 18 -11 11 3 11 0 0 -12 -7 -10 -8 -16 -2 -16 16 0 31 -59 30 -116 -1 -28
2 -56 7 -64 5 -9 4 -11 -3 -6 -13 8 -12 -20 1 -41 5 -7 4 -13 0 -13 -5 0 -8
-35 -7 -77 0 -44 -4 -84 -10 -92 -8 -11 -8 -13 2 -7 7 4 12 1 12 -9 0 -9 -4
-14 -8 -11 -5 3 -9 -2 -9 -10 0 -8 6 -13 13 -10 13 5 13 -19 -1 -31 -4 -5 -5
-1 0 7 5 8 5 12 0 8 -4 -4 -9 -21 -10 -38 -2 -23 0 -28 9 -21 9 8 11 1 8 -24
-3 -25 0 -35 9 -35 12 0 12 -2 1 -9 -8 -4 -14 -12 -15 -17 -1 -5 -6 -8 -10 -6
-4 1 -10 -4 -13 -12 -3 -8 -14 -12 -27 -10 -22 5 -22 5 -1 -5 26 -11 38 -38
21 -47 -7 -4 -9 -4 -5 1 4 4 -2 16 -14 27 -21 18 -35 54 -17 42 5 -3 9 0 9 5
0 6 -8 11 -17 11 -10 0 -14 4 -8 8 6 4 15 17 22 28 9 17 9 26 -4 44 -11 15
-12 20 -3 15 8 -5 11 -3 8 6 -3 8 -10 14 -16 14 -5 0 -14 4 -19 9 -4 5 -4 7 2
3 6 -3 19 1 30 9 17 13 17 14 1 14 -11 0 -15 4 -9 13 11 18 13 38 2 31 -5 -3
-9 2 -9 11 0 10 5 14 13 9 10 -6 10 -4 0 7 -19 20 -16 33 5 18 9 -7 2 3 -16
23 -24 26 -30 38 -21 43 8 6 10 4 4 -6 -5 -8 -4 -11 1 -6 5 5 7 10 4 11 -3 2
2 11 10 21 8 11 10 16 3 12 -6 -4 -14 -3 -18 3 -3 5 2 10 11 10 16 0 16 1 -2
15 -11 8 -14 15 -6 15 6 0 12 5 12 11 0 5 -4 7 -10 4 -5 -3 -10 -1 -10 4 0 6
-7 11 -16 11 -8 0 -12 -4 -9 -10 3 -6 -1 -7 -10 -4 -11 5 -14 2 -9 -9 3 -9 13
-14 22 -10 14 4 15 3 2 -5 -8 -6 -17 -9 -21 -6 -4 2 -10 0 -14 -6 -3 -5 0 -10
7 -10 9 0 9 -3 -2 -10 -12 -8 -10 -10 10 -11 17 0 20 -2 10 -7 -20 -9 -19 -30
0 -42 12 -8 10 -10 -8 -10 -13 0 -20 -4 -17 -10 4 -6 11 -8 16 -5 5 4 9 1 9
-5 0 -6 -7 -13 -15 -16 -12 -5 -13 -10 -4 -20 9 -11 8 -14 -2 -14 -11 0 -11
-2 1 -10 12 -8 12 -10 1 -10 -10 0 -11 -3 -2 -14 9 -10 9 -16 1 -21 -8 -5 -5
-12 7 -22 10 -8 13 -12 6 -9 -6 4 -14 2 -18 -4 -3 -5 -1 -10 4 -10 6 0 11 -5
11 -11 0 -5 -3 -8 -7 -6 -5 3 -9 -6 -9 -20 -2 -17 2 -23 12 -19 7 3 16 0 20
-6 4 -7 3 -8 -4 -4 -16 10 -15 -6 1 -24 10 -12 9 -12 -6 -1 -9 8 -21 11 -24 7
-4 -4 -1 -11 7 -16 10 -7 11 -10 3 -10 -7 0 -13 -6 -13 -14 0 -8 -3 -16 -7
-19 -5 -2 -3 -2 4 -1 7 2 15 -1 18 -6 4 -6 -3 -10 -15 -10 -12 0 -18 -4 -15
-10 3 -6 -1 -7 -9 -4 -9 3 -13 11 -9 18 4 6 -1 5 -10 -3 -9 -7 -17 -10 -17 -7
0 4 -10 2 -21 -5 -15 -7 -19 -8 -15 0 5 7 1 9 -9 5 -11 -5 -14 -2 -9 12 5 16
4 16 -5 4 -14 -20 -14 -41 0 -37 6 1 14 -5 16 -13 4 -13 3 -13 -6 0 -10 13
-11 13 -11 0 0 -9 -3 -11 -8 -5 -4 6 -14 10 -22 10 -8 0 -18 -4 -22 -10 -5 -6
-8 -4 -8 5 0 13 -1 13 -11 0 -9 -13 -10 -13 -6 0 2 8 10 14 17 12 8 -2 10 3 5
15 -4 10 -8 23 -8 30 0 7 -4 10 -9 7 -4 -3 -8 -2 -8 3 0 4 -27 8 -60 9 -33 0
-60 -4 -60 -8 0 -5 5 -6 10 -3 6 3 10 1 10 -4 0 -14 -13 -14 -26 -1 -15 15
-54 21 -54 7 0 -8 -3 -8 -12 1 -9 9 -15 9 -27 -1 -12 -10 -13 -9 -6 2 6 11 4
13 -8 8 -10 -3 -17 -2 -17 4 0 6 -4 8 -8 5 -4 -2 -14 -1 -20 3 -7 4 23 7 68 6
54 -2 80 1 80 9 0 6 4 5 9 -3 8 -12 12 -12 25 -2 13 11 16 11 17 0 0 -10 2
-11 6 -1 2 6 9 12 14 12 6 0 8 -4 5 -8 -3 -5 1 -9 9 -9 8 0 12 4 9 8 -2 4 1 9
8 12 7 2 5 3 -4 2 -10 -2 -18 2 -18 7 0 6 -6 6 -14 -1 -12 -10 -17 -8 -26 8
-10 19 -8 21 20 21 16 0 30 -4 30 -10 0 -5 6 -7 14 -4 8 3 13 11 10 17 -5 15
-84 19 -84 5 0 -6 -6 -5 -15 2 -10 8 -15 9 -15 2 0 -6 -7 -9 -15 -6 -8 4 -15
10 -15 15 0 4 6 6 13 3 8 -3 20 2 27 11 10 13 15 13 21 3 5 -8 7 -1 6 17 -2
21 -8 30 -20 29 -9 -1 -17 2 -17 6 0 5 -13 5 -30 0 -34 -10 -45 0 -34 32 5 17
3 20 -11 14 -14 -5 -16 -4 -6 8 9 11 8 15 -4 20 -11 4 -14 2 -10 -7 4 -6 0 -4
-8 6 -8 9 -19 17 -26 17 -15 0 -14 17 2 23 6 2 -3 7 -21 11 -18 4 -30 11 -27
16 9 15 -29 67 -47 64 -10 -1 -18 2 -18 7 0 5 7 9 16 9 14 0 14 2 -1 16 -9 9
-14 23 -11 30 3 7 -4 16 -16 20 -15 4 -17 8 -8 14 10 6 8 11 -9 21 -24 16 -27
26 -6 26 8 0 11 -5 8 -11 -3 -7 -1 -6 7 1 7 7 9 16 4 25 -13 19 -11 51 3 65 6
7 10 24 9 38 -2 13 1 22 5 19 5 -3 9 2 9 10 0 16 22 47 52 74 9 9 14 20 11 25
-3 6 -2 7 3 4 6 -3 16 -2 24 4 13 7 13 9 0 10 -8 1 -19 1 -23 0 -5 -1 -6 3 -3
8 3 5 15 7 25 4 10 -3 22 1 26 8 5 8 4 10 -3 5 -7 -4 -12 -3 -12 2 0 5 10 12
21 15 15 4 20 11 15 23 -6 15 -4 15 11 3 11 -9 14 -10 9 -1 -4 6 -2 12 3 12 6
0 10 4 9 9 -2 5 2 10 7 12 6 1 16 9 24 16 11 12 16 11 31 -2 17 -15 19 -15 27
0 8 13 39 36 61 44 1 1 -3 -8 -10 -18z m-60 -26 c-3 -3 -9 2 -12 12 -6 14 -5
15 5 6 7 -7 10 -15 7 -18z m1705 18 c-7 -2 -19 -2 -25 0 -7 3 -2 5 12 5 14 0
19 -2 13 -5z m1090 -45 c-2 -4 -12 0 -23 9 -10 9 -17 20 -14 24 6 10 42 -23
37 -33z m-23 -13 c0 -8 -4 -15 -8 -15 -5 0 -9 7 -9 15 0 8 4 15 9 15 4 0 8 -7
8 -15z m29 -51 c-6 -8 -21 -14 -33 -14 -18 1 -16 3 9 15 l30 15 -30 -4 c-27
-4 -28 -3 -11 10 25 18 53 0 35 -22z m-1149 -14 c-9 -17 -14 -20 -20 -9 -6 8
-2 17 8 25 22 16 26 11 12 -16z m1087 11 c-1 -12 -8 -19 -19 -18 -16 1 -16 2
0 18 22 22 21 23 19 0z m-1014 -3 c-2 -5 -15 -8 -29 -8 -13 0 -24 3 -24 8 0 4
13 7 29 7 16 0 27 -3 24 -7z m1012 -48 c3 -5 1 -10 -4 -10 -6 0 -11 5 -11 10
0 6 2 10 4 10 3 0 8 -4 11 -10z m-2965 -20 c0 -5 -5 -10 -11 -10 -5 0 -7 5 -4
10 3 6 8 10 11 10 2 0 4 -4 4 -10z m920 -40 c0 -5 -4 -10 -10 -10 -5 0 -10 5
-10 10 0 6 5 10 10 10 6 0 10 -4 10 -10z m985 -20 c3 -5 1 -10 -4 -10 -6 0
-11 5 -11 10 0 6 2 10 4 10 3 0 8 -4 11 -10z m-32 -24 c26 1 45 -2 41 -5 -3
-3 -9 -5 -12 -5 -4 1 -16 -5 -27 -12 -11 -8 -24 -14 -30 -14 -5 0 -3 5 5 11
12 8 10 9 -8 4 -17 -5 -29 -1 -44 15 l-21 22 24 -8 c13 -5 45 -9 72 -8z
m-2236 -31 c0 -8 -4 -12 -9 -9 -5 3 -6 10 -3 15 9 13 12 11 12 -6z m2214 -30
c-14 -7 -32 -11 -40 -10 -9 2 -19 4 -23 4 -5 1 -8 5 -8 10 0 5 21 9 47 9 45 0
47 0 24 -13z m29 -35 c0 -5 -4 -10 -10 -10 -5 0 -10 5 -10 10 0 6 5 10 10 10
6 0 10 -4 10 -10z m-67 -35 c1 -5 -10 -10 -24 -10 -14 -1 -31 -5 -38 -9 -10
-6 -10 -4 0 11 12 20 57 26 62 8z m1050 2 c3 -8 2 -20 -3 -26 -5 -9 -7 -4 -7
13 0 29 2 32 10 13z m-1029 -35 c2 -4 -7 -8 -22 -9 -24 -2 -24 -1 -7 7 11 5
21 9 22 9 1 1 4 -3 7 -7z m-144 -52 c21 14 30 12 30 -5 0 -21 -44 -19 -61 3
-12 15 -12 16 1 5 10 -8 21 -9 30 -3z m1114 -25 c2 -6 -2 -12 -10 -12 -7 0
-15 6 -18 12 -2 6 2 12 10 12 7 0 15 -6 18 -12z m-1123 -18 c-1 -4 -4 -8 -8
-8 -5 -1 -18 -5 -30 -10 -15 -5 -23 -5 -23 2 0 5 10 14 23 19 24 9 39 9 38 -3z
m-29 -49 c-5 -5 -19 -10 -31 -11 -15 -1 -21 -7 -18 -17 3 -11 -4 -17 -22 -18
-14 -1 -32 -9 -41 -18 -14 -15 -13 -16 3 -11 9 4 17 2 17 -3 0 -6 -9 -10 -20
-10 -11 0 -20 6 -20 13 0 13 29 35 43 33 5 -1 13 7 19 17 10 18 40 34 65 34 8
0 10 -4 5 -9z m-2021 -60 c-11 -11 -13 -10 -7 0 4 7 2 21 -5 30 -12 15 -11 15
6 0 16 -15 17 -20 6 -30z m2029 20 c0 -4 -7 -8 -15 -8 -8 0 -15 4 -15 8 0 5 7
9 15 9 8 0 15 -4 15 -9z m-1660 -38 c0 -5 -5 -10 -11 -10 -5 0 -7 5 -4 10 3 6
8 10 11 10 2 0 4 -4 4 -10z m1600 0 c0 -5 -5 -10 -11 -10 -5 0 -7 5 -4 10 3 6
8 10 11 10 2 0 4 -4 4 -10z m-166 -41 c-8 -14 -21 -11 -21 5 0 8 6 12 14 9 7
-3 10 -9 7 -14z m101 -1 c6 -4 -3 -8 -18 -8 -23 0 -26 2 -15 14 7 8 15 11 18
8 3 -4 10 -10 15 -14z m1102 5 c0 -22 -15 -43 -31 -43 -6 0 -4 5 4 10 8 5 16
15 16 22 3 23 4 28 7 28 2 0 4 -8 4 -17z m-1160 -23 c-1 -10 -3 -17 -6 -15 -2
3 -13 -2 -23 -12 -10 -9 -21 -13 -25 -10 -3 4 -1 7 6 7 7 0 9 5 5 12 -4 7 -3
8 4 4 6 -4 17 2 24 14 16 25 17 25 15 0z m1133 6 c0 -2 -7 -7 -16 -10 -8 -3
-12 -2 -9 4 6 10 25 14 25 6z m-2570 -32 c0 -2 -7 -4 -15 -4 -8 0 -15 4 -15
10 0 5 7 7 15 4 8 -4 15 -8 15 -10z m54 -3 c3 -5 -8 -11 -24 -13 -24 -4 -27
-2 -19 9 13 15 35 17 43 4z m106 -19 c0 -5 7 -9 15 -9 8 0 15 5 15 10 0 6 3 7
6 4 14 -14 -17 -34 -48 -31 -37 5 -51 14 -19 14 12 0 19 4 16 10 -3 6 -1 10 4
10 6 0 11 -4 11 -8z m-62 -20 c2 -6 -6 -10 -17 -9 -12 1 -21 7 -21 13 0 15 33
11 38 -4z m-138 4 c0 -3 -4 -8 -10 -11 -5 -3 -10 -1 -10 4 0 6 5 11 10 11 6 0
10 -2 10 -4z m47 -36 c9 -10 12 -11 13 -2 0 6 8 12 18 12 23 0 48 -17 39 -27
-5 -4 -12 -1 -18 7 -8 13 -10 13 -18 1 -6 -9 -15 -11 -27 -6 -18 8 -27 11 -47
14 -5 0 -5 5 -2 11 8 13 27 8 42 -10z m578 0 c10 -11 14 -20 9 -20 -5 0 -15 9
-22 20 -7 11 -11 20 -9 20 2 0 12 -9 22 -20z m-470 -8 c-3 -3 -11 0 -18 7 -9
10 -8 11 6 5 10 -3 15 -9 12 -12z m2362 12 c-3 -3 -12 -4 -19 -1 -8 3 -5 6 6
6 11 1 17 -2 13 -5z m-1199 -18 c-2 -1 -12 -8 -22 -16 -11 -8 -17 -10 -13 -3
4 6 1 13 -5 16 -7 2 0 4 15 4 15 0 27 0 25 -1z m-1138 -16 c0 -5 5 -10 11 -10
5 0 8 4 5 8 -2 4 4 9 15 9 10 1 23 -6 29 -17 8 -15 6 -18 -13 -17 -12 0 -34
-3 -49 -6 -15 -3 -30 -1 -34 4 -3 5 -14 7 -25 4 -11 -4 -19 -2 -19 4 0 6 9 11
19 11 11 0 23 5 26 10 3 6 13 10 21 10 8 0 14 -4 14 -10z m-119 -23 c-5 -5
-18 -7 -28 -3 -14 6 -15 9 -4 16 19 11 46 1 32 -13z m1106 9 c0 -8 -6 -12 -15
-9 -11 5 -11 7 0 14 7 5 13 9 14 9 0 0 1 -6 1 -14z m-890 -73 c0 -7 -6 -13
-12 -13 -6 0 -12 6 -12 13 0 8 6 14 12 14 6 0 12 -6 12 -14z m53 2 c5 3 11 2
14 -3 2 -4 -8 -8 -24 -7 -23 0 -26 3 -17 14 8 9 12 10 15 2 2 -6 8 -9 12 -6z
m374 7 c2 -4 -4 -9 -15 -9 -11 -1 -17 2 -14 8 7 11 22 12 29 1z m-496 -23 c3
-11 2 -12 -6 -1 -13 19 -16 19 -38 2 -17 -14 -18 -14 -6 2 15 19 44 17 50 -3z
m126 -21 c-3 -5 -12 -7 -19 -4 -7 2 -17 0 -22 -5 -6 -6 -10 -5 -10 3 0 8 13
14 29 15 15 0 25 -4 22 -9z m134 -18 c-7 -11 -15 -15 -17 -9 -2 6 3 15 10 20
20 12 21 11 7 -11z m40 -6 c-1 -5 -9 -9 -16 -10 -10 -2 -11 1 -1 12 12 14 24
13 17 -2z m1552 -36 c0 -9 4 -8 11 2 9 12 10 13 7 0 -3 -8 -16 -15 -31 -15
-21 -2 -25 1 -16 12 14 16 29 17 29 1z m-1937 -83 c-3 -9 -8 -14 -10 -11 -3 3
-2 9 2 15 9 16 15 13 8 -4z m1552 -15 c3 -5 1 -10 -4 -10 -6 0 -11 5 -11 10 0
6 2 10 4 10 3 0 8 -4 11 -10z m-564 -107 c13 -16 12 -17 -3 -4 -10 7 -18 15
-18 17 0 8 8 3 21 -13z m54 -43 c-3 -6 -11 -10 -17 -10 -7 0 -6 6 2 15 9 11 9
15 1 15 -7 0 -9 5 -5 11 5 8 10 6 16 -5 5 -9 6 -21 3 -26z m-521 -15 c-4 -8
-11 -12 -16 -9 -6 4 -5 10 3 15 19 12 19 11 13 -6z m111 -185 c-4 -12 -2 -20
5 -20 6 0 9 -4 6 -9 -4 -5 0 -11 6 -14 7 -3 4 -5 -7 -4 -16 1 -20 7 -19 26 2
36 3 41 10 41 3 0 2 -9 -1 -20z m198 -54 c-3 -4 -9 -2 -14 5 -13 22 -11 31 5
17 8 -7 12 -17 9 -22z m-193 -16 c0 -5 -4 -10 -10 -10 -5 0 -10 5 -10 10 0 6
5 10 10 10 6 0 10 -4 10 -10z m-229 -327 c12 -16 12 -17 -2 -6 -9 7 -20 9 -24
5 -5 -4 -5 -1 -1 6 9 16 11 15 27 -5z m-7 -79 c3 -8 2 -13 -3 -9 -5 3 -11 0
-13 -7 -3 -7 -7 -5 -11 6 -4 10 -3 15 3 11 6 -3 10 -1 10 4 0 16 7 13 14 -5z
m-16 -47 c-1 -2 4 -12 12 -23 14 -18 14 -18 -5 -4 -11 8 -22 15 -24 17 -1 1 0
7 4 13 4 6 9 9 12 6 2 -2 3 -6 1 -9z m242 -427 c6 -11 8 -20 6 -20 -3 0 -10 9
-16 20 -6 11 -8 20 -6 20 3 0 10 -9 16 -20z m-601 -69 c9 -6 10 -11 2 -15 -6
-4 -11 -1 -11 6 0 8 -3 9 -8 3 -4 -5 -13 -11 -21 -13 -12 -3 -12 0 -1 12 14
18 20 19 39 7z m71 2 c0 -1 -8 -7 -18 -12 -14 -7 -19 -6 -19 4 0 7 9 13 19 12
10 -1 18 -2 18 -4z m-50 -42 c0 -11 -25 -21 -51 -21 -26 0 -24 18 4 23 39 8
47 7 47 -2z m70 -123 c0 -3 -9 -6 -20 -5 -11 1 -20 5 -20 9 0 3 9 6 20 5 11
-1 20 -5 20 -9z m52 3 c8 11 9 11 6 1 -4 -16 -22 -18 -24 -2 -2 7 -1 6 3 -1 4
-8 8 -7 15 2z m473 -71 c3 -6 -1 -7 -9 -4 -18 7 -21 14 -7 14 6 0 13 -4 16
-10z m-301 -102 c-4 -5 -9 -7 -12 -4 -3 3 -12 0 -21 -7 -14 -10 -14 -10 -4 4
13 16 46 23 37 7z m456 -108 c0 -5 -2 -10 -4 -10 -3 0 -8 5 -11 10 -3 6 -1 10
4 10 6 0 11 -4 11 -10z m-375 -139 c3 -5 2 -12 -3 -15 -5 -3 -9 1 -9 9 0 17 3
19 12 6z m369 -90 c3 -5 0 -14 -8 -20 -10 -9 -17 -7 -27 6 -8 9 -9 14 -2 10 6
-4 14 -3 18 3 8 12 12 13 19 1z m-1209 -207 c-23 -17 -32 -10 -15 11 7 8 17
12 23 8 6 -4 3 -11 -8 -19z m38 6 c-6 -22 -15 -19 -19 5 -1 8 4 15 11 15 8 0
11 -7 8 -20z m27 0 c0 -5 -5 -10 -11 -10 -5 0 -7 5 -4 10 3 6 8 10 11 10 2 0
4 -4 4 -10z m-4 -43 c4 -3 12 -3 18 0 16 10 56 12 50 2 -2 -4 -13 -6 -24 -4
-11 2 -20 0 -20 -6 0 -5 -7 -9 -15 -9 -8 0 -15 3 -15 8 0 4 -13 7 -30 7 -16 0
-30 -4 -30 -9 0 -5 -3 -7 -6 -3 -3 3 -4 10 -1 14 7 10 63 11 73 0z m18 -35 c3
-5 -1 -9 -9 -9 -8 0 -12 4 -9 9 3 4 7 8 9 8 2 0 6 -4 9 -8z m66 -3 c0 -5 -5
-7 -10 -4 -6 4 -17 1 -25 -5 -9 -8 -15 -8 -15 -2 0 11 16 20 38 21 6 1 12 -4
12 -10z m1030 -19 c0 -5 -7 -10 -16 -10 -8 0 -12 5 -9 10 3 6 10 10 16 10 5 0
9 -4 9 -10z m-1030 -33 c10 -4 8 -6 -7 -6 -16 -1 -23 5 -23 17 0 10 3 13 8 6
4 -6 14 -14 22 -17z m230 17 c0 -8 -19 -13 -24 -6 -3 5 1 9 9 9 8 0 15 -2 15
-3z m-185 -14 c-3 -5 -12 -10 -18 -10 -7 0 -6 4 3 10 19 12 23 12 15 0z m0
-39 c4 -10 -1 -12 -22 -6 -16 4 -33 8 -40 8 -7 0 -10 3 -8 7 7 12 65 5 70 -9z
m985 -51 c0 -5 -5 -10 -11 -10 -5 0 -7 5 -4 10 3 6 8 10 11 10 2 0 4 -4 4 -10z
m-8 -52 c-7 -7 -12 -8 -12 -2 0 14 12 26 19 19 2 -3 -1 -11 -7 -17z m-50 -195
c-6 -2 -9 -10 -6 -15 4 -7 2 -8 -5 -4 -13 9 -5 26 12 25 9 0 8 -2 -1 -6z m3
-52 c-9 -8 -36 -10 -30 -2 2 4 11 8 20 8 8 0 13 -3 10 -6z m35 -21 c0 -5 -5
-10 -11 -10 -5 0 -7 5 -4 10 3 6 8 10 11 10 2 0 4 -4 4 -10z m-40 -15 c-7 -9
-15 -13 -19 -10 -3 3 1 10 9 15 21 14 24 12 10 -5z m-6 -40 c-4 -8 -8 -15 -10
-15 -2 0 -4 7 -4 15 0 8 4 15 10 15 5 0 7 -7 4 -15z m10 -42 c-5 -5 -12 -12
-15 -16 -3 -5 -9 -2 -12 7 -5 12 0 16 15 16 12 0 17 -3 12 -7z m-20 -48 c-4
-8 -10 -12 -15 -9 -11 6 -2 24 11 24 5 0 7 -7 4 -15z m3 -41 c-3 -3 -12 -4
-19 -1 -8 3 -5 6 6 6 11 1 17 -2 13 -5z m-797 -10 c0 -8 -19 -13 -24 -6 -3 5
1 9 9 9 8 0 15 -2 15 -3z m789 -18 c9 -10 8 -15 -3 -19 -10 -4 -14 0 -13 14 2
23 1 23 16 5z m48 -12 c-3 -3 -12 -4 -19 -1 -8 3 -5 6 6 6 11 1 17 -2 13 -5z
m-53 -75 c-3 -5 -10 -7 -15 -4 -5 4 -9 1 -9 -6 0 -7 -3 -9 -6 -6 -9 9 16 38
27 31 5 -3 7 -10 3 -15z m-20 -45 c3 -8 2 -12 -4 -9 -6 3 -10 10 -10 16 0 14
7 11 14 -7z m-1154 -74 c0 -5 -5 -10 -11 -10 -5 0 -7 5 -4 10 3 6 8 10 11 10
2 0 4 -4 4 -10z m47 -22 c-3 -8 -6 -5 -6 6 -1 11 2 17 5 13 3 -3 4 -12 1 -19z
m628 -116 c-3 -3 -11 0 -18 7 -9 10 -8 11 6 5 10 -3 15 -9 12 -12z m105 14 c0
-2 -7 -7 -16 -10 -8 -3 -12 -2 -9 4 6 10 25 14 25 6z m184 -171 c-7 -17 -20
-20 -29 -6 -3 5 3 12 12 14 10 3 19 5 20 6 1 0 0 -6 -3 -14z m-44 -5 c0 -5 -5
-10 -11 -10 -5 0 -7 5 -4 10 3 6 8 10 11 10 2 0 4 -4 4 -10z m-130 -48 c0 -5
-7 -9 -15 -9 -8 0 -12 4 -9 9 3 4 9 8 15 8 5 0 9 -4 9 -8z m-77 -22 c4 -15 1
-19 -14 -17 -25 4 -37 17 -16 17 10 0 17 5 17 10 0 17 7 11 13 -10z m-65 -13
c15 4 15 3 2 -6 -22 -15 -30 -14 -29 7 0 9 3 12 5 5 3 -7 13 -9 22 -6z"/>
<path d="M4599 5778 c-6 -12 -5 -48 1 -48 4 0 7 11 6 25 -1 22 -3 30 -7 23z"/>
<path d="M4665 5772 c-5 -4 -12 -16 -13 -26 -3 -16 -1 -18 11 -8 7 6 17 9 20
6 3 -4 5 3 4 15 -1 22 -6 25 -22 13z"/>
<path d="M4436 5761 c-3 -5 1 -11 9 -14 9 -4 12 -1 8 9 -6 16 -10 17 -17 5z"/>
<path d="M4407 5739 c7 -7 15 -10 18 -7 3 3 -2 9 -12 12 -14 6 -15 5 -6 -5z"/>
<path d="M4667 5699 c7 -7 15 -10 18 -7 3 3 -2 9 -12 12 -14 6 -15 5 -6 -5z"/>
<path d="M4730 5686 c0 -2 7 -7 16 -10 8 -3 12 -2 9 4 -6 10 -25 14 -25 6z"/>
<path d="M4833 5405 c0 -8 4 -15 9 -15 4 0 8 7 8 15 0 8 -4 15 -8 15 -5 0 -9
-7 -9 -15z"/>
<path d="M4819 5363 c-12 -16 -12 -17 2 -6 12 10 18 10 29 0 12 -10 12 -9 1 6
-7 9 -15 17 -16 17 -1 0 -9 -8 -16 -17z"/>
<path d="M4810 5326 c0 -6 14 -11 30 -12 39 -1 39 12 0 18 -17 3 -30 0 -30 -6z"/>
<path d="M4405 5072 c-13 -13 -3 -20 22 -16 37 7 39 11 9 16 -14 3 -28 3 -31
0z"/>
<path d="M4540 5000 c0 -5 -7 -7 -15 -4 -8 4 -15 2 -15 -4 0 -5 7 -12 15 -16
8 -3 15 -1 15 5 0 6 4 7 10 4 6 -3 7 1 4 9 -7 18 -14 21 -14 6z"/>
<path d="M4590 4961 c0 -6 4 -12 8 -15 5 -3 9 1 9 9 0 8 -4 15 -9 15 -4 0 -8
-4 -8 -9z"/>
<path d="M4625 4950 c-3 -5 -4 -14 0 -19 3 -5 1 -12 -5 -16 -5 -3 -10 -1 -10
5 0 6 -5 8 -11 4 -8 -4 -7 -9 2 -14 7 -5 20 -3 30 3 12 7 14 14 7 18 -6 4 -7
12 -4 18 4 6 5 11 2 11 -3 0 -8 -4 -11 -10z"/>
<path d="M4935 4911 c-3 -5 -2 -12 3 -15 5 -3 9 1 9 9 0 17 -3 19 -12 6z"/>
<path d="M4630 4866 c0 -2 7 -6 15 -10 8 -3 15 -1 15 4 0 6 -7 10 -15 10 -8 0
-15 -2 -15 -4z"/>
<path d="M4695 4860 c-3 -5 -1 -10 4 -10 6 0 11 5 11 10 0 6 -2 10 -4 10 -3 0
-8 -4 -11 -10z"/>
<path d="M4624 4834 c3 -8 6 -18 6 -20 0 -2 5 -4 10 -4 16 0 11 27 -6 34 -12
5 -15 2 -10 -10z"/>
<path d="M4395 4931 c-3 -5 0 -13 6 -17 7 -4 9 -3 5 4 -3 5 0 13 6 15 9 4 10
6 1 6 -6 1 -14 -3 -18 -8z"/>
<path d="M6017 9816 c-4 -10 -3 -15 3 -11 6 3 10 1 10 -6 0 -7 3 -10 6 -6 3 3
2 13 -4 22 -8 16 -9 16 -15 1z"/>
<path d="M5995 9440 c3 -5 8 -10 11 -10 2 0 4 5 4 10 0 6 -5 10 -11 10 -5 0
-7 -4 -4 -10z"/>
<path d="M5515 9140 c-3 -5 -1 -10 4 -10 6 0 11 5 11 10 0 6 -2 10 -4 10 -3 0
-8 -4 -11 -10z"/>
<path d="M5485 9100 c-3 -6 1 -7 9 -4 18 7 21 14 7 14 -6 0 -13 -4 -16 -10z"/>
<path d="M5445 9060 c-3 -5 -1 -10 4 -10 6 0 11 5 11 10 0 6 -2 10 -4 10 -3 0
-8 -4 -11 -10z"/>
<path d="M5083 8720 c-30 -12 -29 -16 2 -16 14 0 25 6 25 13 0 7 -1 13 -2 12
-2 0 -13 -4 -25 -9z"/>
<path d="M5773 8353 c-16 -14 -21 -21 -13 -15 8 6 17 10 20 11 3 0 16 4 29 9
20 7 21 10 8 15 -11 4 -27 -3 -44 -20z"/>
<path d="M5745 8250 c-3 -5 3 -7 12 -5 10 1 24 -2 31 -8 7 -5 15 -7 19 -3 3 3
0 6 -8 7 -8 0 -5 4 6 8 15 7 11 9 -18 9 -20 0 -39 -4 -42 -8z"/>
<path d="M4510 8139 c0 -5 5 -7 10 -4 6 3 10 8 10 11 0 2 -4 4 -10 4 -5 0 -10
-5 -10 -11z"/>
<path d="M4044 8095 c-4 -8 -11 -12 -17 -8 -6 3 -7 1 -3 -5 4 -7 18 -12 32
-12 15 0 23 4 19 10 -4 6 -11 8 -16 5 -5 -3 -6 1 -3 9 3 9 3 16 0 16 -4 0 -9
-7 -12 -15z"/>
<path d="M5746 8092 c-3 -5 1 -9 9 -9 8 0 15 4 15 9 0 4 -4 8 -9 8 -6 0 -12
-4 -15 -8z"/>
<path d="M5776 8074 c-3 -8 -10 -13 -15 -9 -5 3 -12 1 -16 -4 -3 -6 4 -8 16
-6 15 3 19 0 15 -10 -3 -8 -1 -15 4 -15 5 0 8 14 8 30 -1 34 -3 37 -12 14z"/>
<path d="M4003 8065 c0 -8 4 -12 9 -9 5 3 6 10 3 15 -9 13 -12 11 -12 -6z"/>
<path d="M5797 8031 c-3 -13 -13 -19 -26 -18 -15 1 -20 6 -16 17 5 11 3 12 -5
3 -9 -8 -9 -16 -1 -30 6 -11 11 -13 11 -5 0 10 4 10 16 -2 8 -9 23 -15 32 -15
15 1 14 2 -1 6 -19 5 -18 30 1 26 5 -1 8 7 5 17 -7 25 -9 25 -16 1z"/>
<path d="M5756 7971 c-7 -11 28 -34 38 -24 3 3 6 2 6 -4 0 -17 -12 -23 -29
-13 -14 7 -17 4 -17 -15 0 -19 3 -22 13 -13 9 7 17 7 28 -2 10 -9 15 -9 15 -1
0 6 -5 11 -11 11 -5 0 -7 5 -4 10 4 6 9 8 13 6 4 -2 8 8 8 22 1 15 -1 21 -3
15 -3 -9 -10 -9 -28 3 -14 9 -25 11 -29 5z"/>
<path d="M5788 7878 c5 -5 16 -8 23 -6 8 3 3 7 -10 11 -17 4 -21 3 -13 -5z"/>
<path d="M5610 7470 c13 -8 12 -10 -3 -10 -10 0 -15 -5 -12 -10 5 -8 11 -7 21
1 15 12 10 29 -9 29 -7 0 -6 -4 3 -10z"/>
<path d="M4645 7180 c3 -5 8 -10 11 -10 2 0 4 5 4 10 0 6 -5 10 -11 10 -5 0
-7 -4 -4 -10z"/>
<path d="M5955 6980 c3 -5 8 -10 11 -10 2 0 4 5 4 10 0 6 -5 10 -11 10 -5 0
-7 -4 -4 -10z"/>
<path d="M6419 6753 c-13 -16 -12 -17 4 -4 9 7 17 15 17 17 0 8 -8 3 -21 -13z"/>
<path d="M6865 6460 c-3 -6 1 -7 9 -4 18 7 21 14 7 14 -6 0 -13 -4 -16 -10z"/>
<path d="M5832 6296 c2 -1 10 -7 19 -14 13 -10 18 -10 22 0 3 8 -5 14 -20 14
-13 1 -23 1 -21 0z"/>
<path d="M7114 6262 c3 -5 0 -12 -6 -15 -7 -2 -10 -7 -7 -11 3 -4 12 0 18 8 9
11 9 16 0 22 -7 4 -9 3 -5 -4z"/>
<path d="M5871 6244 c0 -11 3 -14 6 -6 3 7 2 16 -1 19 -3 4 -6 -2 -5 -13z"/>
<path d="M5895 6210 c3 -5 8 -10 11 -10 2 0 4 5 4 10 0 6 -5 10 -11 10 -5 0
-7 -4 -4 -10z"/>
<path d="M7273 6000 c1 -21 10 -18 13 5 1 8 -2 15 -6 15 -5 0 -8 -9 -7 -20z"/>
<path d="M7243 5989 c-17 -17 5 -59 31 -59 20 1 20 1 -2 13 -12 7 -19 16 -16
20 4 4 1 7 -7 7 -12 0 -12 2 1 10 8 5 12 11 9 14 -3 3 -10 1 -16 -5z"/>
<path d="M4576 5958 c3 -5 10 -6 15 -3 13 9 11 12 -6 12 -8 0 -12 -4 -9 -9z"/>
<path d="M7276 5962 c-3 -4 4 -9 15 -9 23 -2 25 3 4 10 -8 4 -16 3 -19 -1z"/>
<path d="M4521 5944 c0 -11 3 -14 6 -6 3 7 2 16 -1 19 -3 4 -6 -2 -5 -13z"/>
<path d="M7276 5912 c-3 -6 -1 -14 5 -17 15 -10 25 3 12 16 -7 7 -13 7 -17 1z"/>
<path d="M5126 5752 c-3 -5 1 -9 9 -9 8 0 12 4 9 9 -3 4 -7 8 -9 8 -2 0 -6 -4
-9 -8z"/>
<path d="M5184 5453 c2 -9 8 -18 15 -19 6 -1 7 0 1 3 -5 2 -8 9 -5 13 3 5 1
11 -4 14 -5 4 -8 -2 -7 -11z"/>
<path d="M5980 5445 c0 -17 -2 -18 -11 -5 -8 12 -10 12 -7 1 2 -8 12 -15 21
-17 19 -3 21 4 7 26 -8 12 -10 12 -10 -5z"/>
<path d="M7196 5447 c3 -10 9 -15 12 -12 3 3 0 11 -7 18 -10 9 -11 8 -5 -6z"/>
<path d="M7147 5410 c7 -8 20 -15 29 -16 9 -1 13 1 9 4 -4 4 -10 7 -13 7 -4 0
-14 4 -22 9 -12 7 -13 6 -3 -4z"/>
<path d="M5816 5312 c-2 -4 4 -8 15 -8 10 0 19 4 19 8 0 4 -6 8 -14 8 -8 0
-17 -4 -20 -8z"/>
<path d="M7110 5309 c0 -5 5 -7 10 -4 6 3 10 8 10 11 0 2 -4 4 -10 4 -5 0 -10
-5 -10 -11z"/>
<path d="M5790 5270 c0 -5 5 -10 11 -10 5 0 7 5 4 10 -3 6 -8 10 -11 10 -2 0
-4 -4 -4 -10z"/>
<path d="M5675 5180 c-3 -5 -1 -10 4 -10 6 0 11 5 11 10 0 6 -2 10 -4 10 -3 0
-8 -4 -11 -10z"/>
<path d="M5710 5180 c0 -5 5 -10 11 -10 5 0 7 5 4 10 -3 6 -8 10 -11 10 -2 0
-4 -4 -4 -10z"/>
<path d="M5227 5136 c-6 -15 1 -26 16 -26 5 0 6 7 3 16 -5 12 -2 15 9 10 9 -3
13 -2 10 4 -9 15 -32 12 -38 -4z"/>
<path d="M5610 5098 c0 -4 7 -8 15 -8 8 0 15 4 15 8 0 5 -7 9 -15 9 -8 0 -15
-4 -15 -9z"/>
<path d="M5550 5096 c0 -2 7 -7 16 -10 8 -3 12 -2 9 4 -6 10 -25 14 -25 6z"/>
<path d="M5560 5017 c0 -12 -5 -16 -12 -11 -10 6 -10 4 0 -7 16 -17 35 0 22
21 -8 13 -10 12 -10 -3z"/>
<path d="M6870 5019 c0 -5 5 -7 10 -4 6 3 10 8 10 11 0 2 -4 4 -10 4 -5 0 -10
-5 -10 -11z"/>
<path d="M6735 4940 c-3 -5 -1 -10 4 -10 6 0 11 5 11 10 0 6 -2 10 -4 10 -3 0
-8 -4 -11 -10z"/>
<path d="M5350 4924 c0 -8 5 -12 10 -9 6 4 8 11 5 16 -9 14 -15 11 -15 -7z"/>
<path d="M6636 4882 c-3 -5 1 -9 9 -9 8 0 12 4 9 9 -3 4 -7 8 -9 8 -2 0 -6 -4
-9 -8z"/>
<path d="M4050 4860 c0 -5 5 -10 11 -10 5 0 7 -5 3 -12 -4 -7 -3 -8 5 -4 9 6
9 11 0 22 -14 17 -19 18 -19 4z"/>
<path d="M6495 4812 c-8 -21 -3 -22 17 -2 14 13 15 17 3 17 -8 0 -17 -7 -20
-15z"/>
<path d="M4531 4606 c-1 -15 -4 -16 -15 -7 -10 8 -16 9 -21 1 -4 -6 -3 -10 2
-9 4 1 10 1 13 -1 18 -6 53 -9 44 -3 -6 5 -14 15 -17 23 -4 11 -6 10 -6 -4z"/>
<path d="M5620 4530 c-8 -5 -12 -12 -9 -15 4 -3 12 1 19 10 14 17 11 19 -10 5z"/>
<path d="M5300 4501 c0 -5 7 -12 16 -15 14 -5 15 -4 4 9 -14 17 -20 19 -20 6z"/>
<path d="M4772 4225 c4 -4 3 -14 -3 -22 -7 -8 -8 -13 -1 -13 15 0 23 28 9 36
-7 4 -9 4 -5 -1z"/>
<path d="M4762 4164 c-7 -8 -8 -14 -3 -14 10 0 25 19 20 25 -2 1 -10 -3 -17
-11z"/>
<path d="M5193 4135 c0 -8 4 -12 9 -9 5 3 6 10 3 15 -9 13 -12 11 -12 -6z"/>
<path d="M4750 4039 c0 -5 5 -7 10 -4 6 3 10 8 10 11 0 2 -4 4 -10 4 -5 0 -10
-5 -10 -11z"/>
<path d="M4420 3398 c0 -12 7 -18 23 -17 15 0 17 2 7 6 -8 3 -18 11 -22 17 -5
7 -8 4 -8 -6z"/>
<path d="M4335 3151 c-4 -7 -2 -18 5 -25 8 -11 8 -15 -2 -18 -7 -3 6 -4 29 -4
23 1 45 5 49 9 5 4 0 5 -10 1 -13 -5 -17 -2 -14 12 2 14 -2 19 -17 17 -11 -1
-23 3 -26 9 -4 7 -9 6 -14 -1z m49 -26 c-4 -8 -10 -12 -15 -9 -11 6 -2 24 11
24 5 0 7 -7 4 -15z"/>
<path d="M4670 2421 c0 -20 27 -24 34 -5 2 6 -4 14 -15 17 -13 4 -19 0 -19
-12z"/>
<path d="M3913 2333 c9 -2 25 -2 35 0 9 3 1 5 -18 5 -19 0 -27 -2 -17 -5z"/>
<path d="M4506 2286 c3 -8 12 -12 21 -9 12 5 12 7 1 14 -20 13 -28 11 -22 -5z"/>
<path d="M4190 2210 c-8 -5 -12 -12 -9 -15 4 -3 12 1 19 10 14 17 11 19 -10 5z"/>
<path d="M4366 2207 c3 -10 9 -15 12 -12 3 3 0 11 -7 18 -10 9 -11 8 -5 -6z"/>
<path d="M4175 2160 c3 -5 14 -10 23 -10 15 0 15 2 2 10 -20 13 -33 13 -25 0z"/>
<path d="M4197 1861 c-17 -6 -17 -9 -4 -19 12 -10 16 -9 21 4 8 21 6 23 -17
15z"/>
<path d="M4310 1623 c0 -5 5 -15 10 -23 7 -12 9 -10 7 8 -1 19 -17 33 -17 15z"/>
<path d="M4946 1232 c-3 -4 4 -9 15 -9 23 -2 25 3 4 10 -8 4 -16 3 -19 -1z"/>
<path d="M4910 1194 c0 -8 5 -12 10 -9 6 3 10 10 10 16 0 5 -4 9 -10 9 -5 0
-10 -7 -10 -16z"/>
<path d="M4378 1053 c7 -3 16 -2 19 1 4 3 -2 6 -13 5 -11 0 -14 -3 -6 -6z"/>
</g>
</svg>
